<svg width="223" height="69" viewBox="0 0 223 69" fill="none" xmlns="http://www.w3.org/2000/svg">
<path d="M0.76022 14.8243L5.16077 5.04534H11.4193V65.6751L7.8011 69H26.0878L22.3718 65.6751V5.04534H28.6304L33.0309 14.8243V0.546995H0.76022V14.8243ZM47.5245 65.6751V36.2403H55.2499V65.6751L51.5339 68.8044L47.5245 65.6751ZM55.2499 3.87186V31.742H47.5245V3.87186L51.4361 0.644783L55.2499 3.87186ZM66.2024 3.87186L70.114 0.546995H32.6604L36.572 3.87186V65.6751L32.6604 69H70.3095L66.2024 65.6751V3.87186ZM74.8476 3.87186V65.6751L70.936 69H96.6548V54.7227L92.2542 64.5017H85.8001V36.2403H88.147L92.1564 45.237V22.5497L88.0493 31.742H85.8001V5.04534H92.2542L96.6548 14.8243V0.546995H70.936L74.8476 3.87186ZM108.431 0.546995L112.342 3.87186V65.6751L108.333 69H127.5L123.295 65.6751V36.2403H125.642L129.651 45.237V22.5497L125.446 31.742H123.295V5.04534H129.651L134.15 14.8243V0.546995H108.431ZM182.989 5.63208L176.535 54.1359L169.787 3.87186L173.797 0.546995H154.63L158.737 3.87186L159.813 12.0862L154.239 54.1359L147.393 3.87186L151.5 0.546995H132.334L136.343 3.87186L145.144 69H156.781L162.062 28.8083L167.44 69H179.175L187.487 5.63208L193.55 0.546995H177.121L182.989 5.63208ZM200.194 19.0293L204.985 49.7354H195.695L200.194 19.0293ZM197.358 0.546995L198.336 3.87186L188.85 65.6751L185.134 69H196.967L193.251 65.6751L195.011 54.2337H205.67L207.43 65.6751L203.323 69H222.49L218.48 65.6751L208.31 0.546995H197.358Z" fill="#1D1D1B"/>
</svg>
