<svg width="338" height="70" viewBox="0 0 338 70" fill="none" xmlns="http://www.w3.org/2000/svg">
<path d="M15.2331 19.0293L20.0249 49.7354H10.7348L15.2331 19.0293ZM12.3972 0.546995L13.3751 3.87186L3.8895 65.6751L0.17348 69H12.0061L8.29005 65.6751L10.0503 54.2337H20.7094L22.4696 65.6751L18.3624 69H37.5293L33.5199 65.6751L23.3497 0.546995H12.3972ZM80.2138 5.63208L73.7597 54.1359L67.0122 3.87186L71.0216 0.546995H51.8547L55.9619 3.87186L57.0376 12.0862L51.4636 54.1359L44.6183 3.87186L48.7255 0.546995H29.5586L33.568 3.87186L42.3691 69H54.0061L59.2868 28.8083L64.6652 69H76.4L84.7122 5.63208L90.7752 0.546995H74.3464L80.2138 5.63208ZM138.067 5.63208L131.612 54.1359L124.865 3.87186L128.874 0.546995H109.707L113.815 3.87186L114.89 12.0862L109.316 54.1359L102.471 3.87186L106.578 0.546995H87.4113L91.4207 3.87186L100.222 69H111.859L117.139 28.8083L122.518 69H134.253L142.565 5.63208L148.628 0.546995H132.199L138.067 5.63208ZM195.919 5.63208L189.465 54.1359L182.718 3.87186L186.727 0.546995H167.56L171.667 3.87186L172.743 12.0862L167.169 54.1359L160.324 3.87186L164.431 0.546995H145.264L149.273 3.87186L158.075 69H169.712L174.992 28.8083L180.371 69H192.105L200.418 5.63208L206.481 0.546995H190.052L195.919 5.63208ZM213.124 19.0293L217.916 49.7354H208.626L213.124 19.0293ZM210.288 0.546995L211.266 3.87186L201.781 65.6751L198.065 69H209.897L206.181 65.6751L207.941 54.2337H218.6L220.361 65.6751L216.253 69H235.42L231.411 65.6751L221.241 0.546995H210.288ZM248.892 51.0066C258.28 49.9309 266.201 39.0763 266.201 25.8746C266.201 11.7928 257.498 0.546995 247.426 0.546995H232.366L236.473 3.67628V65.6751L232.855 69H251.044L247.426 65.6751V54.3315C256.129 71.4448 265.615 69.2934 265.615 69.2934V53.4514C259.552 57.4608 253.489 54.9182 248.892 51.0066ZM247.426 3.4807C251.728 3.4807 255.151 13.4553 255.151 25.8746C255.151 38.1961 251.728 48.1707 247.426 48.1707V3.4807ZM281.399 3.4807C286.68 5.14312 290.885 19.0293 290.885 34.8713C290.885 50.5177 286.68 64.4039 281.399 66.0663V3.4807ZM266.535 0.546995L270.447 3.87186V65.6751L266.535 69H281.399C294.503 69 301.837 53.647 301.837 35.2624C301.837 16.8779 294.503 0.546995 281.399 0.546995H266.535ZM319.232 41.7166C325.979 46.8995 330.086 49.6376 330.086 55.7006C330.086 61.3724 326.566 64.5994 322.263 64.5994C314.733 64.5994 307.008 54.7227 302.314 44.4547V69.2934L306.421 65.6751C311.017 68.3155 315.907 69.2934 320.21 69.2934C329.206 69.2934 337.714 62.8392 337.714 50.7133C337.714 38.4895 331.26 33.4044 324.219 27.7326C317.471 22.3542 310.039 17.9536 310.039 12.0862C310.039 7.00114 313.267 3.87186 317.765 3.87186C323.143 3.87186 326.566 6.41439 334.976 22.5497V0.253628L330.967 2.69838C328.131 1.62269 324.219 0.253628 320.112 0.253628C309.453 0.253628 302.314 7.58788 302.314 18.6381C302.314 29.9818 313.658 37.6094 319.232 41.7166Z" fill="#1D1D1B"/>
</svg>
