<svg width="395" height="71" viewBox="0 0 395 71" fill="none" xmlns="http://www.w3.org/2000/svg">
<path d="M39.7563 0.569096C38.7784 2.13374 37.116 3.405 35.0624 3.405C32.0309 3.405 29.4884 0.569096 24.7945 0.569096C11.2017 0.569096 0.34696 15.531 0.34696 36.1647C0.34696 57.1895 9.83259 70.9779 23.132 70.9779C32.911 70.9779 39.8541 62.8613 41.5166 50.2464L40.832 50.0508C37.8983 61.2967 32.911 64.8171 27.2392 64.8171C18.6337 64.8171 12.7663 53.6691 12.7663 34.6C12.7663 16.4111 16.7757 2.81827 25.7724 2.81827C32.1287 2.81827 37.4094 12.8906 40.2453 24.2343H40.5387L39.7563 0.569096ZM52.8449 20.0293L57.6366 50.7354H48.3466L52.8449 20.0293ZM50.009 1.54699L50.9869 4.87186L41.5013 66.6751L37.7853 70H49.6178L45.9018 66.6751L47.662 55.2337H58.3212L60.0814 66.6751L55.9742 70H75.141L71.1316 66.6751L60.9615 1.54699H50.009ZM104.748 6.63208V38.0227L85.0927 1.54699H70.8154L77.4651 12.1083V64.9149L71.7933 70H87.6352L81.9634 64.9149V18.3669L109.247 70.2934V6.63208L114.919 1.54699H99.0767L104.748 6.63208ZM145.507 6.63208V38.0227L125.851 1.54699H111.574L118.224 12.1083V64.9149L112.552 70H128.394L122.722 64.9149V18.3669L150.005 70.2934V6.63208L155.677 1.54699H139.835L145.507 6.63208ZM157.993 4.87186V66.6751L154.081 70H179.8V55.7227L175.399 65.5017H168.945V37.2403H171.292L175.302 46.237V23.5497L171.194 32.742H168.945V6.04534H175.399L179.8 15.8243V1.54699H154.081L157.993 4.87186ZM198.66 42.7166C205.408 47.8995 209.515 50.6376 209.515 56.7006C209.515 62.3724 205.995 65.5994 201.692 65.5994C194.162 65.5994 186.437 55.7227 181.743 45.4547V70.2934L185.85 66.6751C190.446 69.3155 195.336 70.2934 199.638 70.2934C208.635 70.2934 217.143 63.8392 217.143 51.7133C217.143 39.4895 210.689 34.4044 203.648 28.7326C196.9 23.3542 189.468 18.9536 189.468 13.0862C189.468 8.00114 192.695 4.87186 197.194 4.87186C202.572 4.87186 205.995 7.41439 214.405 23.5497V1.25363L210.395 3.69838C207.559 2.62269 203.648 1.25363 199.541 1.25363C188.881 1.25363 181.743 8.58788 181.743 19.6381C181.743 30.9818 193.086 38.6094 198.66 42.7166ZM243.377 4.87186L247.679 1.54699H228.512L232.424 4.87186V66.6751L228.512 70H254.231V55.7227L249.831 65.5017H243.377V4.87186ZM268.094 66.6751V4.87186L272.103 1.54699H253.132L257.141 4.87186V66.6751L253.132 70H272.103L268.094 66.6751ZM320.602 35.7735C320.602 15.2376 309.845 0.569096 296.546 0.569096C283.149 0.569096 272.49 15.2376 272.49 35.7735C272.49 56.3094 283.149 70.9779 296.546 70.9779C309.845 70.9779 320.602 56.3094 320.602 35.7735ZM307.89 35.7735C307.89 55.0381 304.956 68.8265 296.546 68.8265C288.038 68.8265 285.202 55.0381 285.202 35.7735C285.202 16.5089 288.038 2.72048 296.546 2.72048C304.956 2.72048 307.89 16.5089 307.89 35.7735ZM350.53 6.63208V38.0227L330.874 1.54699H316.597L323.246 12.1083V64.9149L317.575 70H333.417L327.745 64.9149V18.3669L355.028 70.2934V6.63208L360.7 1.54699H344.858L350.53 6.63208ZM376.39 42.7166C383.138 47.8995 387.245 50.6376 387.245 56.7006C387.245 62.3724 383.724 65.5994 379.421 65.5994C371.892 65.5994 364.166 55.7227 359.472 45.4547V70.2934L363.58 66.6751C368.176 69.3155 373.065 70.2934 377.368 70.2934C386.365 70.2934 394.872 63.8392 394.872 51.7133C394.872 39.4895 388.418 34.4044 381.377 28.7326C374.63 23.3542 367.198 18.9536 367.198 13.0862C367.198 8.00114 370.425 4.87186 374.923 4.87186C380.302 4.87186 383.724 7.41439 392.134 23.5497V1.25363L388.125 3.69838C385.289 2.62269 381.377 1.25363 377.27 1.25363C366.611 1.25363 359.472 8.58788 359.472 19.6381C359.472 30.9818 370.816 38.6094 376.39 42.7166Z" fill="#1D1D1B"/>
</svg>
