<svg width="106" height="69" viewBox="0 0 106 69" fill="none" xmlns="http://www.w3.org/2000/svg">
<path d="M15.6022 3.4807C20.8829 5.14312 25.0878 19.0293 25.0878 34.8713C25.0878 50.5177 20.8829 64.4039 15.6022 66.0663V3.4807ZM0.73812 0.546995L4.64972 3.87186V65.6751L0.73812 69H15.6022C28.7061 69 36.0403 53.647 36.0403 35.2624C36.0403 16.8779 28.7061 0.546995 15.6022 0.546995H0.73812ZM50.9174 3.4807C56.198 5.14312 60.403 19.0293 60.403 34.8713C60.403 50.5177 56.198 64.4039 50.9174 66.0663V3.4807ZM36.0533 0.546995L39.9649 3.87186V65.6751L36.0533 69H50.9174C64.0212 69 71.3555 53.647 71.3555 35.2624C71.3555 16.8779 64.0212 0.546995 50.9174 0.546995H36.0533ZM83.24 19.0293L88.0317 49.7354H78.7417L83.24 19.0293ZM80.4041 0.546995L81.382 3.87186L71.8964 65.6751L68.1804 69H80.013L76.2969 65.6751L78.0572 54.2337H88.7163L90.4765 65.6751L86.3693 69H105.536L101.527 65.6751L91.3566 0.546995H80.4041Z" fill="#1D1D1B"/>
</svg>
