<svg width="275.84" height="13.78" viewBox="0 0 275.84 13.78" xmlns="http://www.w3.org/2000/svg"><g id="svgGroup" stroke-linecap="round" fill-rule="evenodd" font-size="9pt" stroke="#000" stroke-width="0.25mm" fill="black" style="stroke:#000;stroke-width:0.25mm;fill:black"><path d="M 7.02 13.36 L 3.18 2.58 L 3.08 2.58 A 204.185 204.185 0 0 0 3.014 3.326 Q 2.919 4.417 2.762 6.302 A 2044.212 2044.212 0 0 0 2.66 7.53 A 843.185 843.185 0 0 0 2.59 8.386 Q 2.36 11.2 2.36 11.48 Q 2.36 12.1 2.98 12.1 L 3.8 12.08 L 3.84 12.16 L 3.66 13.06 A 7.55 7.55 0 0 0 3.533 13.05 Q 3.356 13.037 3.061 13.021 A 65.478 65.478 0 0 0 2.87 13.01 Q 2.3 12.98 1.72 12.98 A 7.766 7.766 0 0 0 0.822 13.034 A 8.611 8.611 0 0 0 0.69 13.05 Q 0.16 13.12 0 13.14 L 0.1 12.22 A 2.267 2.267 0 0 0 0.448 12.151 Q 0.63 12.098 0.77 12.017 A 0.956 0.956 0 0 0 1.02 11.81 A 1.096 1.096 0 0 0 1.182 11.543 Q 1.301 11.276 1.358 10.865 A 4.753 4.753 0 0 0 1.38 10.68 Q 1.58 8.8 1.91 5.61 A 443.267 443.267 0 0 0 1.987 4.857 Q 2.228 2.492 2.239 2.077 A 1.347 1.347 0 0 0 2.24 2.04 A 1.039 1.039 0 0 0 2.188 1.703 A 0.835 0.835 0 0 0 1.83 1.26 A 1.485 1.485 0 0 0 1.526 1.117 Q 1.139 0.982 0.52 0.94 L 0.46 0.84 L 0.62 0.14 Q 0.832 0.157 1.378 0.186 A 152.201 152.201 0 0 0 1.64 0.2 Q 2.222 0.231 2.593 0.238 A 10.785 10.785 0 0 0 2.8 0.24 Q 3.16 0.24 3.59 0.21 A 28.894 28.894 0 0 0 3.764 0.198 Q 4 0.18 4.116 0.166 A 1.898 1.898 0 0 0 4.16 0.16 Q 4.96 2.74 5.71 4.95 Q 6.284 6.642 6.7 7.801 A 78.062 78.062 0 0 0 6.94 8.46 Q 7.42 9.76 7.54 10.08 L 7.64 10.08 A 50.61 50.61 0 0 0 7.77 9.731 Q 8.095 8.853 8.86 6.727 A 1308.336 1308.336 0 0 0 8.92 6.56 A 207.508 207.508 0 0 0 9.897 3.778 Q 10.473 2.102 11.1 0.2 A 0.004 0.004 0 0 1 11.104 0.197 Q 11.145 0.184 11.64 0.22 L 12.42 0.24 Q 12.711 0.24 13.225 0.211 A 38.729 38.729 0 0 0 13.56 0.19 Q 14.181 0.149 14.468 0.129 A 26.038 26.038 0 0 0 14.58 0.12 L 14.62 0.2 L 14.52 0.94 A 5.77 5.77 0 0 0 14.098 1.004 Q 13.564 1.107 13.3 1.29 A 0.814 0.814 0 0 0 12.95 1.883 A 1.233 1.233 0 0 0 12.94 2.04 A 7.192 7.192 0 0 0 12.946 2.289 Q 12.969 2.881 13.071 4.536 A 475.205 475.205 0 0 0 13.12 5.31 A 475.15 475.15 0 0 0 13.252 7.324 Q 13.306 8.119 13.358 8.838 A 254.737 254.737 0 0 0 13.46 10.2 Q 13.539 10.85 13.618 11.23 A 4.117 4.117 0 0 0 13.66 11.41 A 1.882 1.882 0 0 0 13.723 11.611 Q 13.811 11.842 13.94 11.95 Q 14.092 12.077 14.343 12.097 A 1.233 1.233 0 0 0 14.44 12.1 A 2.89 2.89 0 0 0 14.678 12.091 A 2.45 2.45 0 0 0 14.78 12.08 Q 14.94 12.06 15 12.06 L 15.04 12.14 L 14.86 13.04 A 4.013 4.013 0 0 0 14.747 13.031 Q 14.582 13.019 14.296 13.007 A 39.903 39.903 0 0 0 14.11 13 A 30.678 30.678 0 0 0 13.257 12.982 A 34.898 34.898 0 0 0 12.96 12.98 Q 12.42 12.98 11.75 13.05 Q 11.08 13.12 10.88 13.14 L 10.96 12.22 A 3.106 3.106 0 0 0 11.282 12.163 Q 11.618 12.082 11.814 11.937 A 0.835 0.835 0 0 0 11.86 11.9 A 0.781 0.781 0 0 0 12.12 11.44 A 1.163 1.163 0 0 0 12.14 11.22 Q 12.14 10.824 11.882 7.702 A 648.037 648.037 0 0 0 11.85 7.32 A 3873.311 3873.311 0 0 1 11.724 5.811 Q 11.537 3.545 11.46 2.58 L 11.36 2.58 L 7.5 13.22 L 7.02 13.36 Z M 236.66 13.36 L 232.82 2.58 L 232.72 2.58 A 204.185 204.185 0 0 0 232.654 3.326 Q 232.559 4.417 232.402 6.302 A 2044.212 2044.212 0 0 0 232.3 7.53 A 843.185 843.185 0 0 0 232.23 8.386 Q 232 11.2 232 11.48 Q 232 12.1 232.62 12.1 L 233.44 12.08 L 233.48 12.16 L 233.3 13.06 A 7.55 7.55 0 0 0 233.173 13.05 Q 232.996 13.037 232.701 13.021 A 65.478 65.478 0 0 0 232.51 13.01 Q 231.94 12.98 231.36 12.98 A 7.766 7.766 0 0 0 230.462 13.034 A 8.611 8.611 0 0 0 230.33 13.05 Q 229.8 13.12 229.64 13.14 L 229.74 12.22 A 2.267 2.267 0 0 0 230.088 12.151 Q 230.27 12.098 230.41 12.017 A 0.956 0.956 0 0 0 230.66 11.81 A 1.096 1.096 0 0 0 230.822 11.543 Q 230.941 11.276 230.998 10.865 A 4.753 4.753 0 0 0 231.02 10.68 Q 231.22 8.8 231.55 5.61 A 443.267 443.267 0 0 0 231.627 4.857 Q 231.868 2.492 231.879 2.077 A 1.347 1.347 0 0 0 231.88 2.04 A 1.039 1.039 0 0 0 231.828 1.703 A 0.835 0.835 0 0 0 231.47 1.26 A 1.485 1.485 0 0 0 231.166 1.117 Q 230.779 0.982 230.16 0.94 L 230.1 0.84 L 230.26 0.14 Q 230.472 0.157 231.018 0.186 A 152.201 152.201 0 0 0 231.28 0.2 Q 231.862 0.231 232.233 0.238 A 10.785 10.785 0 0 0 232.44 0.24 Q 232.8 0.24 233.23 0.21 A 28.894 28.894 0 0 0 233.404 0.198 Q 233.64 0.18 233.756 0.166 A 1.898 1.898 0 0 0 233.8 0.16 Q 234.6 2.74 235.35 4.95 Q 235.924 6.642 236.34 7.801 A 78.062 78.062 0 0 0 236.58 8.46 Q 237.06 9.76 237.18 10.08 L 237.28 10.08 A 50.61 50.61 0 0 0 237.41 9.731 Q 237.735 8.853 238.5 6.727 A 1308.336 1308.336 0 0 0 238.56 6.56 A 207.508 207.508 0 0 0 239.537 3.778 Q 240.113 2.102 240.74 0.2 A 0.004 0.004 0 0 1 240.744 0.197 Q 240.785 0.184 241.28 0.22 L 242.06 0.24 Q 242.351 0.24 242.865 0.211 A 38.729 38.729 0 0 0 243.2 0.19 Q 243.821 0.149 244.108 0.129 A 26.038 26.038 0 0 0 244.22 0.12 L 244.26 0.2 L 244.16 0.94 A 5.77 5.77 0 0 0 243.738 1.004 Q 243.204 1.107 242.94 1.29 A 0.814 0.814 0 0 0 242.59 1.883 A 1.233 1.233 0 0 0 242.58 2.04 A 7.192 7.192 0 0 0 242.586 2.289 Q 242.609 2.881 242.711 4.536 A 475.205 475.205 0 0 0 242.76 5.31 A 475.15 475.15 0 0 0 242.892 7.324 Q 242.946 8.119 242.998 8.838 A 254.737 254.737 0 0 0 243.1 10.2 Q 243.179 10.85 243.258 11.23 A 4.117 4.117 0 0 0 243.3 11.41 A 1.882 1.882 0 0 0 243.363 11.611 Q 243.451 11.842 243.58 11.95 Q 243.732 12.077 243.983 12.097 A 1.233 1.233 0 0 0 244.08 12.1 A 2.89 2.89 0 0 0 244.318 12.091 A 2.45 2.45 0 0 0 244.42 12.08 Q 244.58 12.06 244.64 12.06 L 244.68 12.14 L 244.5 13.04 A 4.013 4.013 0 0 0 244.387 13.031 Q 244.222 13.019 243.936 13.007 A 39.903 39.903 0 0 0 243.75 13 A 30.678 30.678 0 0 0 242.897 12.982 A 34.898 34.898 0 0 0 242.6 12.98 Q 242.06 12.98 241.39 13.05 Q 240.72 13.12 240.52 13.14 L 240.6 12.22 A 3.106 3.106 0 0 0 240.922 12.163 Q 241.258 12.082 241.454 11.937 A 0.835 0.835 0 0 0 241.5 11.9 A 0.781 0.781 0 0 0 241.76 11.44 A 1.163 1.163 0 0 0 241.78 11.22 Q 241.78 10.824 241.522 7.702 A 648.037 648.037 0 0 0 241.49 7.32 A 3873.311 3873.311 0 0 1 241.364 5.811 Q 241.177 3.545 241.1 2.58 L 241 2.58 L 237.14 13.22 L 236.66 13.36 Z M 31.66 2.76 L 31.56 2.76 L 31.46 11.3 A 2.201 2.201 0 0 0 31.469 11.504 Q 31.495 11.785 31.6 11.92 A 0.42 0.42 0 0 0 31.786 12.054 Q 31.858 12.081 31.948 12.093 A 1.07 1.07 0 0 0 32.08 12.1 L 33.1 12.08 L 33.14 12.16 L 32.96 13.06 A 5.646 5.646 0 0 0 32.842 13.051 Q 32.65 13.038 32.294 13.021 A 74.291 74.291 0 0 0 32.06 13.01 Q 31.425 12.982 30.912 12.98 A 19.93 19.93 0 0 0 30.84 12.98 Q 30.34 12.98 29.75 13.05 Q 29.16 13.12 28.98 13.14 L 29.08 12.22 Q 29.487 12.168 29.756 12.025 A 1.072 1.072 0 0 0 30 11.85 Q 30.242 11.617 30.302 11.181 A 2.147 2.147 0 0 0 30.32 10.96 L 30.58 2.22 A 1.631 1.631 0 0 0 30.551 1.9 Q 30.514 1.715 30.429 1.576 A 0.774 0.774 0 0 0 30.21 1.34 A 1.231 1.231 0 0 0 29.954 1.207 Q 29.687 1.102 29.268 1.035 A 7.318 7.318 0 0 0 28.84 0.98 L 28.78 0.88 L 28.94 0.14 Q 29.087 0.157 29.514 0.186 A 74.165 74.165 0 0 0 29.72 0.2 Q 30.215 0.233 30.532 0.239 A 7.019 7.019 0 0 0 30.66 0.24 Q 31.08 0.24 31.48 0.21 A 23.075 23.075 0 0 0 31.642 0.198 Q 31.844 0.181 31.947 0.168 A 1.437 1.437 0 0 0 32 0.16 Q 33.48 2.46 34.97 4.66 A 390.021 390.021 0 0 0 35.684 5.712 Q 36.642 7.115 37.359 8.137 A 129.198 129.198 0 0 0 37.46 8.28 A 781.88 781.88 0 0 1 37.809 8.776 Q 38.483 9.734 38.704 10.056 A 20.492 20.492 0 0 1 38.72 10.08 L 38.82 10.08 L 38.82 1.98 A 1.643 1.643 0 0 0 38.793 1.666 Q 38.694 1.163 38.24 1.124 A 0.924 0.924 0 0 0 38.16 1.12 L 37.4 1.14 L 37.36 1.06 L 37.54 0.16 A 5.485 5.485 0 0 0 37.654 0.17 Q 37.871 0.187 38.3 0.21 Q 38.86 0.24 39.44 0.24 Q 39.96 0.24 40.59 0.17 Q 41.22 0.1 41.42 0.08 L 41.32 1 A 3.343 3.343 0 0 0 40.956 1.072 Q 40.556 1.175 40.329 1.365 A 0.965 0.965 0 0 0 40.3 1.39 Q 40.016 1.648 39.968 2.135 A 2.007 2.007 0 0 0 39.96 2.26 L 39.68 13.5 L 39.1 13.78 Q 37.36 11.08 35.71 8.63 Q 34.234 6.439 33.23 4.999 A 130.642 130.642 0 0 0 33 4.67 Q 32.008 3.257 31.699 2.816 A 250.864 250.864 0 0 1 31.66 2.76 Z M 53.78 0.48 L 53.86 0.6 A 1.233 1.233 0 0 0 53.843 0.657 Q 53.803 0.801 53.726 1.153 A 31.346 31.346 0 0 0 53.72 1.18 Q 53.62 1.64 53.51 2.38 Q 53.4 3.12 53.34 3.94 L 52.4 4.02 A 0.993 0.993 0 0 0 52.409 3.963 Q 52.421 3.878 52.433 3.728 A 10.779 10.779 0 0 0 52.44 3.63 A 7.516 7.516 0 0 0 52.452 3.397 Q 52.457 3.268 52.459 3.122 A 14.497 14.497 0 0 0 52.46 2.94 A 1.864 1.864 0 0 0 52.384 2.393 A 1.359 1.359 0 0 0 51.75 1.6 Q 51.149 1.245 49.912 1.19 A 10.694 10.694 0 0 0 49.44 1.18 A 6.111 6.111 0 0 0 47.992 1.342 A 4.125 4.125 0 0 0 45.89 2.55 Q 44.764 3.765 44.636 5.853 A 8.98 8.98 0 0 0 44.62 6.4 A 9.177 9.177 0 0 0 44.743 7.939 A 6.802 6.802 0 0 0 45.18 9.46 Q 45.74 10.78 46.78 11.5 Q 47.82 12.22 49.18 12.22 A 5.324 5.324 0 0 0 49.952 12.166 A 4.291 4.291 0 0 0 50.5 12.05 A 8.094 8.094 0 0 0 50.956 11.907 Q 51.267 11.799 51.51 11.68 A 19.133 19.133 0 0 0 51.606 11.633 Q 51.92 11.478 51.92 11.46 L 51.92 9.02 Q 51.92 8.354 51.718 8.148 A 0.348 0.348 0 0 0 51.71 8.14 Q 51.5 7.94 50.82 7.94 L 49.44 7.94 L 49.4 7.86 L 49.58 6.86 A 6.354 6.354 0 0 0 49.711 6.869 Q 49.925 6.883 50.332 6.9 A 92.932 92.932 0 0 0 50.6 6.91 Q 51.38 6.94 52.12 6.94 Q 52.66 6.94 53.18 6.9 A 47.736 47.736 0 0 0 53.362 6.886 Q 53.726 6.857 53.84 6.84 L 53.92 7.28 A 1.213 1.213 0 0 0 53.633 7.638 Q 53.499 7.885 53.43 8.23 Q 53.332 8.72 53.308 9.682 A 27.162 27.162 0 0 0 53.3 10.36 Q 53.3 11.52 53.44 12.12 L 53.32 12.3 A 0.022 0.022 0 0 1 53.309 12.309 Q 53.243 12.345 52.783 12.509 A 49.124 49.124 0 0 1 52.61 12.57 Q 51.9 12.82 50.87 13.02 A 11.153 11.153 0 0 1 48.929 13.218 A 12.403 12.403 0 0 1 48.72 13.22 Q 46.96 13.22 45.64 12.46 Q 44.32 11.7 43.6 10.31 A 6.278 6.278 0 0 1 42.999 8.487 A 8.435 8.435 0 0 1 42.88 7.04 A 8.232 8.232 0 0 1 43.128 4.981 A 6.854 6.854 0 0 1 43.76 3.38 Q 44.64 1.78 46.24 0.89 Q 47.84 0 49.9 0 A 11.407 11.407 0 0 1 50.77 0.035 A 14.466 14.466 0 0 1 51.5 0.11 Q 52.36 0.22 52.98 0.33 A 78.293 78.293 0 0 1 53.23 0.375 Q 53.639 0.449 53.78 0.48 Z M 100.1 9.54 L 100.16 9.64 A 36.734 36.734 0 0 0 99.633 12.892 A 40.023 40.023 0 0 0 99.62 13 L 99.52 13.12 A 458.265 458.265 0 0 0 97.566 13.059 Q 95.141 12.989 93.769 12.981 A 57.141 57.141 0 0 0 93.46 12.98 A 19.451 19.451 0 0 0 91.595 13.066 A 16.303 16.303 0 0 0 90.68 13.18 L 90.8 12.26 Q 91.7 12.14 92.03 11.79 A 0.986 0.986 0 0 0 92.225 11.473 Q 92.36 11.131 92.36 10.58 L 92.38 2.18 Q 92.38 1.54 92.23 1.32 A 0.433 0.433 0 0 0 92.043 1.17 Q 91.897 1.105 91.671 1.101 A 1.699 1.699 0 0 0 91.64 1.1 L 90.96 1.14 L 90.92 1.06 L 91.06 0.18 A 302.823 302.823 0 0 0 91.945 0.205 Q 93.273 0.24 93.84 0.24 Q 95.662 0.24 96.863 0.211 A 50.603 50.603 0 0 0 97.54 0.19 A 29.306 29.306 0 0 0 98.482 0.14 Q 98.995 0.104 99.444 0.052 A 15.703 15.703 0 0 0 99.84 0 L 99.9 0.12 A 19.813 19.813 0 0 0 99.473 2.954 A 22.216 22.216 0 0 0 99.44 3.44 L 98.48 3.52 L 98.52 2.66 Q 98.52 1.96 98.34 1.69 A 0.586 0.586 0 0 0 98.159 1.521 Q 97.985 1.412 97.692 1.353 A 2.739 2.739 0 0 0 97.56 1.33 Q 96.97 1.242 95.51 1.24 A 49.356 49.356 0 0 0 95.46 1.24 A 19.446 19.446 0 0 0 95.156 1.242 Q 94.699 1.25 94.5 1.28 A 0.795 0.795 0 0 0 94.375 1.309 Q 94.311 1.33 94.264 1.36 A 0.296 0.296 0 0 0 94.16 1.47 Q 94.08 1.62 94.06 2.02 L 93.9 5.9 L 95.96 5.92 Q 96.74 5.92 98.4 5.7 L 98.48 5.8 L 98.2 6.98 Q 96.123 6.924 95.481 6.92 A 14.546 14.546 0 0 0 95.4 6.92 Q 94.74 6.92 93.86 7.06 L 93.78 10.88 Q 93.78 11.46 93.88 11.69 Q 93.98 11.92 94.29 12 Q 94.6 12.08 95.36 12.08 Q 96.627 12.08 97.342 11.989 A 4.41 4.41 0 0 0 97.75 11.92 A 2.112 2.112 0 0 0 98.181 11.777 Q 98.453 11.649 98.633 11.449 A 1.222 1.222 0 0 0 98.76 11.28 Q 99.06 10.8 99.22 9.64 L 100.1 9.54 Z M 181.28 9.54 L 181.34 9.64 A 36.734 36.734 0 0 0 180.813 12.892 A 40.023 40.023 0 0 0 180.8 13 L 180.7 13.12 A 458.265 458.265 0 0 0 178.746 13.059 Q 176.321 12.989 174.949 12.981 A 57.141 57.141 0 0 0 174.64 12.98 A 19.451 19.451 0 0 0 172.775 13.066 A 16.303 16.303 0 0 0 171.86 13.18 L 171.98 12.26 Q 172.88 12.14 173.21 11.79 A 0.986 0.986 0 0 0 173.405 11.473 Q 173.54 11.131 173.54 10.58 L 173.56 2.18 Q 173.56 1.54 173.41 1.32 A 0.433 0.433 0 0 0 173.223 1.17 Q 173.077 1.105 172.851 1.101 A 1.699 1.699 0 0 0 172.82 1.1 L 172.14 1.14 L 172.1 1.06 L 172.24 0.18 A 302.823 302.823 0 0 0 173.125 0.205 Q 174.453 0.24 175.02 0.24 Q 176.842 0.24 178.043 0.211 A 50.603 50.603 0 0 0 178.72 0.19 A 29.306 29.306 0 0 0 179.662 0.14 Q 180.175 0.104 180.624 0.052 A 15.703 15.703 0 0 0 181.02 0 L 181.08 0.12 A 19.813 19.813 0 0 0 180.653 2.954 A 22.216 22.216 0 0 0 180.62 3.44 L 179.66 3.52 L 179.7 2.66 Q 179.7 1.96 179.52 1.69 A 0.586 0.586 0 0 0 179.339 1.521 Q 179.165 1.412 178.872 1.353 A 2.739 2.739 0 0 0 178.74 1.33 Q 178.15 1.242 176.69 1.24 A 49.356 49.356 0 0 0 176.64 1.24 A 19.446 19.446 0 0 0 176.336 1.242 Q 175.879 1.25 175.68 1.28 A 0.795 0.795 0 0 0 175.555 1.309 Q 175.491 1.33 175.444 1.36 A 0.296 0.296 0 0 0 175.34 1.47 Q 175.26 1.62 175.24 2.02 L 175.08 5.9 L 177.14 5.92 Q 177.92 5.92 179.58 5.7 L 179.66 5.8 L 179.38 6.98 Q 177.303 6.924 176.661 6.92 A 14.546 14.546 0 0 0 176.58 6.92 Q 175.92 6.92 175.04 7.06 L 174.96 10.88 Q 174.96 11.46 175.06 11.69 Q 175.16 11.92 175.47 12 Q 175.78 12.08 176.54 12.08 Q 177.807 12.08 178.522 11.989 A 4.41 4.41 0 0 0 178.93 11.92 A 2.112 2.112 0 0 0 179.361 11.777 Q 179.633 11.649 179.813 11.449 A 1.222 1.222 0 0 0 179.94 11.28 Q 180.24 10.8 180.4 9.64 L 181.28 9.54 Z M 213.3 8.8 L 213.3 2.18 Q 213.3 1.54 213.15 1.32 A 0.433 0.433 0 0 0 212.963 1.17 Q 212.817 1.105 212.591 1.101 A 1.699 1.699 0 0 0 212.56 1.1 Q 212.36 1.1 212.16 1.12 Q 211.96 1.14 211.88 1.14 L 211.84 1.06 L 211.98 0.18 A 5.693 5.693 0 0 0 212.116 0.19 Q 212.316 0.201 212.663 0.213 A 58.579 58.579 0 0 0 212.89 0.22 Q 213.56 0.24 214.24 0.24 Q 214.78 0.24 215.46 0.17 A 38.009 38.009 0 0 0 215.735 0.141 Q 216.078 0.103 216.251 0.076 A 2.284 2.284 0 0 0 216.34 0.06 L 216.26 0.96 A 4.51 4.51 0 0 0 215.925 1.017 Q 215.61 1.084 215.422 1.185 A 0.738 0.738 0 0 0 215.27 1.29 A 0.71 0.71 0 0 0 215.112 1.512 Q 215.005 1.738 214.98 2.1 L 214.82 7.98 A 7.332 7.332 0 0 0 214.904 9.128 Q 215.001 9.737 215.209 10.227 A 3.295 3.295 0 0 0 215.68 11.02 A 2.787 2.787 0 0 0 217.397 12.014 A 4.183 4.183 0 0 0 218.16 12.08 A 4.942 4.942 0 0 0 219.131 11.991 Q 220.075 11.802 220.66 11.21 Q 221.423 10.439 221.509 9.062 A 5.778 5.778 0 0 0 221.52 8.7 A 425.834 425.834 0 0 0 221.499 7.214 Q 221.487 6.456 221.471 5.618 A 715.064 715.064 0 0 0 221.46 5.05 A 1661.324 1661.324 0 0 0 221.441 4.106 Q 221.415 2.796 221.4 2.18 Q 221.364 1.554 221.256 1.336 A 0.377 0.377 0 0 0 221.23 1.29 A 0.35 0.35 0 0 0 221.09 1.175 Q 220.966 1.115 220.765 1.103 A 1.783 1.783 0 0 0 220.66 1.1 A 6.325 6.325 0 0 0 220.289 1.112 A 7.162 7.162 0 0 0 220.16 1.12 Q 219.9 1.14 219.8 1.14 L 219.76 1.06 L 219.9 0.18 A 5.693 5.693 0 0 0 220.036 0.19 Q 220.236 0.201 220.583 0.213 A 58.579 58.579 0 0 0 220.81 0.22 Q 221.48 0.24 222.16 0.24 A 9.406 9.406 0 0 0 222.862 0.213 A 11.404 11.404 0 0 0 223.31 0.17 Q 223.808 0.113 224.02 0.076 A 1.878 1.878 0 0 0 224.1 0.06 L 224.02 0.96 Q 223.42 1.04 223.13 1.15 A 0.959 0.959 0 0 0 222.96 1.233 Q 222.865 1.293 222.802 1.371 A 0.509 0.509 0 0 0 222.74 1.47 Q 222.65 1.66 222.641 2.021 A 3.278 3.278 0 0 0 222.64 2.1 L 222.64 8.82 A 5.443 5.443 0 0 1 222.486 10.152 A 3.703 3.703 0 0 1 221.34 12.07 A 4.273 4.273 0 0 1 219.718 12.95 Q 219.075 13.144 218.303 13.199 A 8.84 8.84 0 0 1 217.68 13.22 A 6.165 6.165 0 0 1 216.405 13.096 Q 215.206 12.843 214.44 12.07 Q 213.3 10.92 213.3 8.8 Z M 102.58 12.54 L 102.48 12.34 Q 102.499 12.228 102.552 11.8 A 87.701 87.701 0 0 0 102.56 11.74 Q 102.614 11.311 102.659 10.649 A 38.99 38.99 0 0 0 102.67 10.49 A 23.953 23.953 0 0 0 102.715 9.389 A 28.159 28.159 0 0 0 102.72 8.86 L 103.62 8.76 Q 103.62 9.973 103.751 10.676 A 3.605 3.605 0 0 0 103.82 10.98 A 1.992 1.992 0 0 0 103.996 11.42 A 1.31 1.31 0 0 0 104.56 11.97 Q 105.1 12.24 106.22 12.24 A 4.371 4.371 0 0 0 107.059 12.164 Q 107.752 12.029 108.24 11.65 A 1.891 1.891 0 0 0 108.99 10.273 A 2.549 2.549 0 0 0 109 10.04 A 1.616 1.616 0 0 0 108.603 8.975 A 2.035 2.035 0 0 0 108.59 8.96 Q 108.18 8.48 107.62 8.14 A 15.675 15.675 0 0 0 107.306 7.955 Q 106.948 7.749 106.446 7.479 A 65.795 65.795 0 0 0 105.96 7.22 A 23.918 23.918 0 0 1 105.237 6.83 Q 104.674 6.512 104.26 6.23 Q 103.6 5.78 103.15 5.16 A 2.365 2.365 0 0 1 102.702 3.824 A 2.921 2.921 0 0 1 102.7 3.72 A 3.542 3.542 0 0 1 102.7 3.704 A 3.166 3.166 0 0 1 103.31 1.83 A 4.02 4.02 0 0 1 104.577 0.695 A 4.938 4.938 0 0 1 104.97 0.49 A 5.268 5.268 0 0 1 106.789 0.02 A 6.345 6.345 0 0 1 107.3 0 A 10.25 10.25 0 0 1 108.162 0.035 A 8.185 8.185 0 0 1 108.78 0.11 A 14.322 14.322 0 0 1 109.178 0.18 Q 109.585 0.258 109.86 0.34 Q 110.234 0.453 110.346 0.495 A 0.812 0.812 0 0 1 110.36 0.5 L 110.42 0.62 Q 110.401 0.737 110.325 1.154 A 226.43 226.43 0 0 1 110.32 1.18 A 12.725 12.725 0 0 0 110.279 1.422 Q 110.235 1.692 110.186 2.053 A 45.19 45.19 0 0 0 110.14 2.4 Q 110.04 3.18 109.98 4 L 109.2 4.08 L 109.08 3.98 Q 109.1 3.901 109.12 3.614 A 11.863 11.863 0 0 0 109.12 3.61 A 7.839 7.839 0 0 0 109.134 3.339 Q 109.138 3.2 109.14 3.045 A 13.727 13.727 0 0 0 109.14 2.94 A 3.372 3.372 0 0 0 109.104 2.431 Q 109.007 1.797 108.645 1.5 A 1.024 1.024 0 0 0 108.62 1.48 A 1.447 1.447 0 0 0 108.227 1.274 Q 107.819 1.126 107.181 1.091 A 7.686 7.686 0 0 0 106.76 1.08 A 3.614 3.614 0 0 0 105.96 1.164 A 2.544 2.544 0 0 0 104.95 1.63 A 1.994 1.994 0 0 0 104.517 2.081 A 1.595 1.595 0 0 0 104.24 3 A 1.703 1.703 0 0 0 104.713 4.181 A 2.438 2.438 0 0 0 104.93 4.39 Q 105.588 4.953 106.839 5.617 A 21.831 21.831 0 0 0 106.96 5.68 A 47.224 47.224 0 0 1 107.571 5.996 Q 108.229 6.342 108.682 6.612 A 11.591 11.591 0 0 1 108.94 6.77 Q 109.62 7.2 110.14 7.84 Q 110.66 8.48 110.66 9.32 Q 110.66 10.44 110.03 11.33 A 3.983 3.983 0 0 1 108.778 12.464 A 5.003 5.003 0 0 1 108.28 12.72 A 5.682 5.682 0 0 1 106.755 13.15 A 7.357 7.357 0 0 1 105.72 13.22 A 8.19 8.19 0 0 1 104.825 13.173 A 6.439 6.439 0 0 1 104.18 13.07 A 10.381 10.381 0 0 1 103.7 12.956 Q 103.483 12.899 103.298 12.838 A 4.681 4.681 0 0 1 103.03 12.74 A 20.889 20.889 0 0 1 102.925 12.698 Q 102.58 12.558 102.58 12.54 Z M 117.14 12.54 L 117.04 12.34 Q 117.059 12.228 117.112 11.8 A 87.701 87.701 0 0 0 117.12 11.74 Q 117.174 11.311 117.219 10.649 A 38.99 38.99 0 0 0 117.23 10.49 A 23.953 23.953 0 0 0 117.275 9.389 A 28.159 28.159 0 0 0 117.28 8.86 L 118.18 8.76 Q 118.18 9.973 118.311 10.676 A 3.605 3.605 0 0 0 118.38 10.98 A 1.992 1.992 0 0 0 118.556 11.42 A 1.31 1.31 0 0 0 119.12 11.97 Q 119.66 12.24 120.78 12.24 A 4.371 4.371 0 0 0 121.619 12.164 Q 122.312 12.029 122.8 11.65 A 1.891 1.891 0 0 0 123.55 10.273 A 2.549 2.549 0 0 0 123.56 10.04 A 1.616 1.616 0 0 0 123.163 8.975 A 2.035 2.035 0 0 0 123.15 8.96 Q 122.74 8.48 122.18 8.14 A 15.675 15.675 0 0 0 121.866 7.955 Q 121.508 7.749 121.006 7.479 A 65.795 65.795 0 0 0 120.52 7.22 A 23.918 23.918 0 0 1 119.797 6.83 Q 119.234 6.512 118.82 6.23 Q 118.16 5.78 117.71 5.16 A 2.365 2.365 0 0 1 117.262 3.824 A 2.921 2.921 0 0 1 117.26 3.72 A 3.542 3.542 0 0 1 117.26 3.704 A 3.166 3.166 0 0 1 117.87 1.83 A 4.02 4.02 0 0 1 119.137 0.695 A 4.938 4.938 0 0 1 119.53 0.49 A 5.268 5.268 0 0 1 121.349 0.02 A 6.345 6.345 0 0 1 121.86 0 A 10.25 10.25 0 0 1 122.722 0.035 A 8.185 8.185 0 0 1 123.34 0.11 A 14.322 14.322 0 0 1 123.738 0.18 Q 124.145 0.258 124.42 0.34 Q 124.794 0.453 124.906 0.495 A 0.812 0.812 0 0 1 124.92 0.5 L 124.98 0.62 Q 124.961 0.737 124.885 1.154 A 226.43 226.43 0 0 1 124.88 1.18 A 12.725 12.725 0 0 0 124.839 1.422 Q 124.795 1.692 124.746 2.053 A 45.19 45.19 0 0 0 124.7 2.4 Q 124.6 3.18 124.54 4 L 123.76 4.08 L 123.64 3.98 Q 123.66 3.901 123.68 3.614 A 11.863 11.863 0 0 0 123.68 3.61 A 7.839 7.839 0 0 0 123.694 3.339 Q 123.698 3.2 123.7 3.045 A 13.727 13.727 0 0 0 123.7 2.94 A 3.372 3.372 0 0 0 123.664 2.431 Q 123.567 1.797 123.205 1.5 A 1.024 1.024 0 0 0 123.18 1.48 A 1.447 1.447 0 0 0 122.787 1.274 Q 122.379 1.126 121.741 1.091 A 7.686 7.686 0 0 0 121.32 1.08 A 3.614 3.614 0 0 0 120.52 1.164 A 2.544 2.544 0 0 0 119.51 1.63 A 1.994 1.994 0 0 0 119.077 2.081 A 1.595 1.595 0 0 0 118.8 3 A 1.703 1.703 0 0 0 119.273 4.181 A 2.438 2.438 0 0 0 119.49 4.39 Q 120.148 4.953 121.399 5.617 A 21.831 21.831 0 0 0 121.52 5.68 A 47.224 47.224 0 0 1 122.131 5.996 Q 122.789 6.342 123.242 6.612 A 11.591 11.591 0 0 1 123.5 6.77 Q 124.18 7.2 124.7 7.84 Q 125.22 8.48 125.22 9.32 Q 125.22 10.44 124.59 11.33 A 3.983 3.983 0 0 1 123.338 12.464 A 5.003 5.003 0 0 1 122.84 12.72 A 5.682 5.682 0 0 1 121.315 13.15 A 7.357 7.357 0 0 1 120.28 13.22 A 8.19 8.19 0 0 1 119.385 13.173 A 6.439 6.439 0 0 1 118.74 13.07 A 10.381 10.381 0 0 1 118.26 12.956 Q 118.043 12.899 117.858 12.838 A 4.681 4.681 0 0 1 117.59 12.74 A 20.889 20.889 0 0 1 117.485 12.698 Q 117.14 12.558 117.14 12.54 Z M 183.76 12.54 L 183.66 12.34 Q 183.679 12.228 183.732 11.8 A 87.701 87.701 0 0 0 183.74 11.74 Q 183.794 11.311 183.839 10.649 A 38.99 38.99 0 0 0 183.85 10.49 A 23.953 23.953 0 0 0 183.895 9.389 A 28.159 28.159 0 0 0 183.9 8.86 L 184.8 8.76 Q 184.8 9.973 184.931 10.676 A 3.605 3.605 0 0 0 185 10.98 A 1.992 1.992 0 0 0 185.176 11.42 A 1.31 1.31 0 0 0 185.74 11.97 Q 186.28 12.24 187.4 12.24 A 4.371 4.371 0 0 0 188.239 12.164 Q 188.932 12.029 189.42 11.65 A 1.891 1.891 0 0 0 190.17 10.273 A 2.549 2.549 0 0 0 190.18 10.04 A 1.616 1.616 0 0 0 189.783 8.975 A 2.035 2.035 0 0 0 189.77 8.96 Q 189.36 8.48 188.8 8.14 A 15.675 15.675 0 0 0 188.486 7.955 Q 188.128 7.749 187.626 7.479 A 65.795 65.795 0 0 0 187.14 7.22 A 23.918 23.918 0 0 1 186.417 6.83 Q 185.854 6.512 185.44 6.23 Q 184.78 5.78 184.33 5.16 A 2.365 2.365 0 0 1 183.882 3.824 A 2.921 2.921 0 0 1 183.88 3.72 A 3.542 3.542 0 0 1 183.88 3.704 A 3.166 3.166 0 0 1 184.49 1.83 A 4.02 4.02 0 0 1 185.757 0.695 A 4.938 4.938 0 0 1 186.15 0.49 A 5.268 5.268 0 0 1 187.969 0.02 A 6.345 6.345 0 0 1 188.48 0 A 10.25 10.25 0 0 1 189.342 0.035 A 8.185 8.185 0 0 1 189.96 0.11 A 14.322 14.322 0 0 1 190.358 0.18 Q 190.765 0.258 191.04 0.34 Q 191.414 0.453 191.526 0.495 A 0.812 0.812 0 0 1 191.54 0.5 L 191.6 0.62 Q 191.581 0.737 191.505 1.154 A 226.43 226.43 0 0 1 191.5 1.18 A 12.725 12.725 0 0 0 191.459 1.422 Q 191.415 1.692 191.366 2.053 A 45.19 45.19 0 0 0 191.32 2.4 Q 191.22 3.18 191.16 4 L 190.38 4.08 L 190.26 3.98 Q 190.28 3.901 190.3 3.614 A 11.863 11.863 0 0 0 190.3 3.61 A 7.839 7.839 0 0 0 190.314 3.339 Q 190.318 3.2 190.32 3.045 A 13.727 13.727 0 0 0 190.32 2.94 A 3.372 3.372 0 0 0 190.284 2.431 Q 190.187 1.797 189.825 1.5 A 1.024 1.024 0 0 0 189.8 1.48 A 1.447 1.447 0 0 0 189.407 1.274 Q 188.999 1.126 188.361 1.091 A 7.686 7.686 0 0 0 187.94 1.08 A 3.614 3.614 0 0 0 187.14 1.164 A 2.544 2.544 0 0 0 186.13 1.63 A 1.994 1.994 0 0 0 185.697 2.081 A 1.595 1.595 0 0 0 185.42 3 A 1.703 1.703 0 0 0 185.893 4.181 A 2.438 2.438 0 0 0 186.11 4.39 Q 186.768 4.953 188.019 5.617 A 21.831 21.831 0 0 0 188.14 5.68 A 47.224 47.224 0 0 1 188.751 5.996 Q 189.409 6.342 189.862 6.612 A 11.591 11.591 0 0 1 190.12 6.77 Q 190.8 7.2 191.32 7.84 Q 191.84 8.48 191.84 9.32 Q 191.84 10.44 191.21 11.33 A 3.983 3.983 0 0 1 189.958 12.464 A 5.003 5.003 0 0 1 189.46 12.72 A 5.682 5.682 0 0 1 187.935 13.15 A 7.357 7.357 0 0 1 186.9 13.22 A 8.19 8.19 0 0 1 186.005 13.173 A 6.439 6.439 0 0 1 185.36 13.07 A 10.381 10.381 0 0 1 184.88 12.956 Q 184.663 12.899 184.478 12.838 A 4.681 4.681 0 0 1 184.21 12.74 A 20.889 20.889 0 0 1 184.105 12.698 Q 183.76 12.558 183.76 12.54 Z M 267.76 12.54 L 267.66 12.34 Q 267.679 12.228 267.732 11.8 A 87.701 87.701 0 0 0 267.74 11.74 Q 267.794 11.311 267.839 10.649 A 38.99 38.99 0 0 0 267.85 10.49 A 23.953 23.953 0 0 0 267.895 9.389 A 28.159 28.159 0 0 0 267.9 8.86 L 268.8 8.76 Q 268.8 9.973 268.931 10.676 A 3.605 3.605 0 0 0 269 10.98 A 1.992 1.992 0 0 0 269.176 11.42 A 1.31 1.31 0 0 0 269.74 11.97 Q 270.28 12.24 271.4 12.24 A 4.371 4.371 0 0 0 272.239 12.164 Q 272.932 12.029 273.42 11.65 A 1.891 1.891 0 0 0 274.17 10.273 A 2.549 2.549 0 0 0 274.18 10.04 A 1.616 1.616 0 0 0 273.783 8.975 A 2.035 2.035 0 0 0 273.77 8.96 Q 273.36 8.48 272.8 8.14 A 15.675 15.675 0 0 0 272.486 7.955 Q 272.128 7.749 271.626 7.479 A 65.795 65.795 0 0 0 271.14 7.22 A 23.918 23.918 0 0 1 270.417 6.83 Q 269.854 6.512 269.44 6.23 Q 268.78 5.78 268.33 5.16 A 2.365 2.365 0 0 1 267.882 3.824 A 2.921 2.921 0 0 1 267.88 3.72 A 3.542 3.542 0 0 1 267.88 3.704 A 3.166 3.166 0 0 1 268.49 1.83 A 4.02 4.02 0 0 1 269.757 0.695 A 4.938 4.938 0 0 1 270.15 0.49 A 5.268 5.268 0 0 1 271.969 0.02 A 6.345 6.345 0 0 1 272.48 0 A 10.25 10.25 0 0 1 273.342 0.035 A 8.185 8.185 0 0 1 273.96 0.11 A 14.322 14.322 0 0 1 274.358 0.18 Q 274.765 0.258 275.04 0.34 Q 275.414 0.453 275.526 0.495 A 0.812 0.812 0 0 1 275.54 0.5 L 275.6 0.62 Q 275.581 0.737 275.505 1.154 A 226.43 226.43 0 0 1 275.5 1.18 A 12.725 12.725 0 0 0 275.459 1.422 Q 275.415 1.692 275.366 2.053 A 45.19 45.19 0 0 0 275.32 2.4 Q 275.22 3.18 275.16 4 L 274.38 4.08 L 274.26 3.98 Q 274.28 3.901 274.3 3.614 A 11.863 11.863 0 0 0 274.3 3.61 A 7.839 7.839 0 0 0 274.314 3.339 Q 274.318 3.2 274.32 3.045 A 13.727 13.727 0 0 0 274.32 2.94 A 3.372 3.372 0 0 0 274.284 2.431 Q 274.187 1.797 273.825 1.5 A 1.024 1.024 0 0 0 273.8 1.48 A 1.447 1.447 0 0 0 273.407 1.274 Q 272.999 1.126 272.361 1.091 A 7.686 7.686 0 0 0 271.94 1.08 A 3.614 3.614 0 0 0 271.14 1.164 A 2.544 2.544 0 0 0 270.13 1.63 A 1.994 1.994 0 0 0 269.697 2.081 A 1.595 1.595 0 0 0 269.42 3 A 1.703 1.703 0 0 0 269.893 4.181 A 2.438 2.438 0 0 0 270.11 4.39 Q 270.768 4.953 272.019 5.617 A 21.831 21.831 0 0 0 272.14 5.68 A 47.224 47.224 0 0 1 272.751 5.996 Q 273.409 6.342 273.862 6.612 A 11.591 11.591 0 0 1 274.12 6.77 Q 274.8 7.2 275.32 7.84 Q 275.84 8.48 275.84 9.32 Q 275.84 10.44 275.21 11.33 A 3.983 3.983 0 0 1 273.958 12.464 A 5.003 5.003 0 0 1 273.46 12.72 A 5.682 5.682 0 0 1 271.935 13.15 A 7.357 7.357 0 0 1 270.9 13.22 A 8.19 8.19 0 0 1 270.005 13.173 A 6.439 6.439 0 0 1 269.36 13.07 A 10.381 10.381 0 0 1 268.88 12.956 Q 268.663 12.899 268.478 12.838 A 4.681 4.681 0 0 1 268.21 12.74 A 20.889 20.889 0 0 1 268.105 12.698 Q 267.76 12.558 267.76 12.54 Z M 155.06 13.06 L 155.22 12.2 A 11.417 11.417 0 0 0 155.678 12.155 Q 156.314 12.078 156.6 11.95 A 0.855 0.855 0 0 0 157.061 11.451 A 1.227 1.227 0 0 0 157.1 11.33 Q 157.22 10.88 157.22 9.74 L 157.22 1.02 Q 155.749 1.072 155.094 1.177 A 3.628 3.628 0 0 0 154.91 1.21 A 1.564 1.564 0 0 0 154.559 1.326 A 0.989 0.989 0 0 0 154.08 1.79 A 2.05 2.05 0 0 0 153.973 2.066 Q 153.831 2.515 153.706 3.356 A 20.56 20.56 0 0 0 153.68 3.54 L 152.74 3.62 Q 152.98 1.72 153.04 0.16 L 153.22 0 L 154.88 0.22 L 161.08 0.22 L 162.78 0 L 162.96 0.16 A 33.357 33.357 0 0 0 163.203 3.107 A 36.987 36.987 0 0 0 163.26 3.54 L 162.32 3.62 Q 162.112 2.374 161.904 1.894 A 1.587 1.587 0 0 0 161.88 1.84 A 1.061 1.061 0 0 0 161.275 1.295 A 1.529 1.529 0 0 0 161.1 1.24 A 3.717 3.717 0 0 0 160.78 1.178 Q 160.309 1.104 159.481 1.051 A 38.322 38.322 0 0 0 158.94 1.02 A 23.893 23.893 0 0 0 158.882 1.729 Q 158.795 2.974 158.72 5.26 A 198.406 198.406 0 0 0 158.646 8.107 Q 158.621 9.458 158.62 10.663 A 119.687 119.687 0 0 0 158.62 10.74 A 3.32 3.32 0 0 0 158.638 11.103 Q 158.689 11.563 158.88 11.79 A 0.77 0.77 0 0 0 159.196 12.01 Q 159.325 12.061 159.488 12.083 A 2.017 2.017 0 0 0 159.76 12.1 A 10.57 10.57 0 0 0 160.335 12.085 A 8.126 8.126 0 0 0 160.86 12.04 L 160.92 12.12 L 160.74 13.04 L 160.08 13.02 L 157.8 12.98 Q 156.727 12.98 155.139 13.056 A 99.222 99.222 0 0 0 155.06 13.06 Z M 148.46 11.4 L 146.32 7.52 L 144.66 7.52 L 144.6 10.5 Q 144.6 11.26 144.7 11.59 A 0.803 0.803 0 0 0 144.794 11.798 A 0.592 0.592 0 0 0 145.08 12.03 Q 145.36 12.14 146.04 12.14 L 146.08 12.22 L 145.9 13.06 Q 145.704 13.044 145.188 13.028 A 64.388 64.388 0 0 0 144.94 13.02 Q 144.22 13 143.44 13 A 41.987 41.987 0 0 0 142.858 13.004 Q 142.592 13.008 142.355 13.015 A 23.965 23.965 0 0 0 142.2 13.02 Q 141.734 13.038 141.536 13.055 A 2.409 2.409 0 0 0 141.48 13.06 L 141.66 12.16 A 6.794 6.794 0 0 0 141.995 12.111 Q 142.317 12.054 142.529 11.977 A 1.55 1.55 0 0 0 142.62 11.94 A 0.851 0.851 0 0 0 142.883 11.765 A 0.779 0.779 0 0 0 143.06 11.49 A 1.399 1.399 0 0 0 143.123 11.268 Q 143.172 11.031 143.179 10.694 A 5.59 5.59 0 0 0 143.18 10.58 L 143.2 2.18 Q 143.2 1.54 143.05 1.32 A 0.433 0.433 0 0 0 142.863 1.17 Q 142.717 1.105 142.491 1.101 A 1.699 1.699 0 0 0 142.46 1.1 Q 142.26 1.1 142.06 1.12 Q 141.86 1.14 141.78 1.14 L 141.74 1.06 L 141.88 0.18 A 5.76 5.76 0 0 0 142.016 0.19 Q 142.214 0.201 142.557 0.213 A 57.421 57.421 0 0 0 142.78 0.22 Q 143.44 0.24 144.1 0.24 Q 144.78 0.24 145.53 0.21 Q 146.145 0.186 146.444 0.168 A 10.154 10.154 0 0 0 146.56 0.16 A 6.664 6.664 0 0 1 147.74 0.258 Q 148.789 0.447 149.5 1 A 2.698 2.698 0 0 1 150.565 2.967 A 3.672 3.672 0 0 1 150.58 3.3 Q 150.58 4.5 149.81 5.5 A 4.953 4.953 0 0 1 148.709 6.536 A 6.805 6.805 0 0 1 147.64 7.14 L 149.84 10.62 A 7.28 7.28 0 0 0 150.182 11.138 Q 150.583 11.69 150.97 11.95 A 2.127 2.127 0 0 0 151.766 12.27 A 2.937 2.937 0 0 0 152.32 12.32 L 152.4 12.4 L 152.28 13.08 L 150.58 13.3 A 1.155 1.155 0 0 1 150.137 13.206 Q 149.835 13.081 149.51 12.79 Q 149.002 12.335 148.565 11.586 A 7.495 7.495 0 0 1 148.46 11.4 Z M 22.66 13.18 L 22.6 13.04 L 22.68 12.26 A 12.761 12.761 0 0 0 23.137 12.217 Q 23.77 12.144 24.06 12.029 A 1.112 1.112 0 0 0 24.08 12.02 A 0.785 0.785 0 0 0 24.264 11.914 A 0.502 0.502 0 0 0 24.46 11.5 A 2.229 2.229 0 0 0 24.435 11.178 Q 24.411 11.016 24.365 10.835 A 4.879 4.879 0 0 0 24.28 10.54 L 23.62 8.36 Q 23.228 8.344 22.088 8.341 A 209.549 209.549 0 0 0 21.54 8.34 Q 20.58 8.34 19.36 8.5 L 18.62 10.58 A 6.75 6.75 0 0 0 18.541 10.832 Q 18.475 11.058 18.452 11.214 A 1.017 1.017 0 0 0 18.44 11.36 A 1.082 1.082 0 0 0 18.464 11.598 Q 18.498 11.747 18.578 11.855 A 0.584 0.584 0 0 0 18.72 11.99 A 0.859 0.859 0 0 0 18.936 12.092 Q 19.145 12.161 19.455 12.176 A 3.786 3.786 0 0 0 19.64 12.18 L 20.78 12.18 L 20.82 12.26 L 20.7 13.12 Q 20.467 13.101 19.652 13.044 A 435.161 435.161 0 0 0 19.6 13.04 Q 18.74 12.98 17.92 12.98 Q 17.18 12.98 16.55 13 Q 16.035 13.017 15.808 13.033 A 3.202 3.202 0 0 0 15.72 13.04 L 15.88 12.1 A 1.789 1.789 0 0 0 16.306 12.004 A 1.326 1.326 0 0 0 16.78 11.71 A 1.699 1.699 0 0 0 16.991 11.456 Q 17.183 11.178 17.368 10.737 A 7.221 7.221 0 0 0 17.44 10.56 L 21.34 0.34 L 22.6 0 L 22.76 0 Q 22.876 0.466 23.341 2.116 A 434.951 434.951 0 0 0 23.37 2.22 A 208.967 208.967 0 0 0 23.768 3.615 Q 23.947 4.234 24.148 4.915 A 388.456 388.456 0 0 0 24.57 6.34 Q 25.28 8.72 25.94 10.72 A 3.374 3.374 0 0 0 26.101 11.13 Q 26.302 11.552 26.58 11.76 Q 26.944 12.033 27.704 12.124 A 5.539 5.539 0 0 0 27.86 12.14 L 27.9 12.22 L 27.76 13.04 A 4.057 4.057 0 0 1 27.752 13.04 Q 27.529 13.04 26.986 13.015 A 64.557 64.557 0 0 1 26.89 13.01 Q 26.26 12.98 25.64 12.98 A 21.022 21.022 0 0 0 24.07 13.037 A 18.889 18.889 0 0 0 23.79 13.06 Q 22.9 13.14 22.66 13.18 Z M 62.06 13.18 L 62 13.04 L 62.08 12.26 A 12.761 12.761 0 0 0 62.537 12.217 Q 63.17 12.144 63.46 12.029 A 1.112 1.112 0 0 0 63.48 12.02 A 0.785 0.785 0 0 0 63.664 11.914 A 0.502 0.502 0 0 0 63.86 11.5 A 2.229 2.229 0 0 0 63.835 11.178 Q 63.811 11.016 63.765 10.835 A 4.879 4.879 0 0 0 63.68 10.54 L 63.02 8.36 Q 62.628 8.344 61.488 8.341 A 209.549 209.549 0 0 0 60.94 8.34 Q 59.98 8.34 58.76 8.5 L 58.02 10.58 A 6.75 6.75 0 0 0 57.941 10.832 Q 57.875 11.058 57.852 11.214 A 1.017 1.017 0 0 0 57.84 11.36 A 1.082 1.082 0 0 0 57.864 11.598 Q 57.898 11.747 57.978 11.855 A 0.584 0.584 0 0 0 58.12 11.99 A 0.859 0.859 0 0 0 58.336 12.092 Q 58.545 12.161 58.855 12.176 A 3.786 3.786 0 0 0 59.04 12.18 L 60.18 12.18 L 60.22 12.26 L 60.1 13.12 Q 59.867 13.101 59.052 13.044 A 435.161 435.161 0 0 0 59 13.04 Q 58.14 12.98 57.32 12.98 Q 56.58 12.98 55.95 13 Q 55.435 13.017 55.208 13.033 A 3.202 3.202 0 0 0 55.12 13.04 L 55.28 12.1 A 1.789 1.789 0 0 0 55.706 12.004 A 1.326 1.326 0 0 0 56.18 11.71 A 1.699 1.699 0 0 0 56.391 11.456 Q 56.583 11.178 56.768 10.737 A 7.221 7.221 0 0 0 56.84 10.56 L 60.74 0.34 L 62 0 L 62.16 0 Q 62.276 0.466 62.741 2.116 A 434.951 434.951 0 0 0 62.77 2.22 A 208.967 208.967 0 0 0 63.168 3.615 Q 63.347 4.234 63.548 4.915 A 388.456 388.456 0 0 0 63.97 6.34 Q 64.68 8.72 65.34 10.72 A 3.374 3.374 0 0 0 65.501 11.13 Q 65.702 11.552 65.98 11.76 Q 66.344 12.033 67.104 12.124 A 5.539 5.539 0 0 0 67.26 12.14 L 67.3 12.22 L 67.16 13.04 A 4.057 4.057 0 0 1 67.152 13.04 Q 66.929 13.04 66.386 13.015 A 64.557 64.557 0 0 1 66.29 13.01 Q 65.66 12.98 65.04 12.98 A 21.022 21.022 0 0 0 63.47 13.037 A 18.889 18.889 0 0 0 63.19 13.06 Q 62.3 13.14 62.06 13.18 Z M 81.14 13.18 L 81.26 12.26 Q 82.04 12.14 82.33 11.79 A 0.988 0.988 0 0 0 82.489 11.506 Q 82.596 11.222 82.616 10.784 A 4.565 4.565 0 0 0 82.62 10.58 L 82.64 2.18 Q 82.64 1.54 82.49 1.32 A 0.433 0.433 0 0 0 82.303 1.17 Q 82.157 1.105 81.931 1.101 A 1.699 1.699 0 0 0 81.9 1.1 Q 81.7 1.1 81.5 1.12 Q 81.3 1.14 81.22 1.14 L 81.18 1.06 L 81.32 0.18 A 5.76 5.76 0 0 0 81.456 0.19 Q 81.654 0.201 81.997 0.213 A 57.421 57.421 0 0 0 82.22 0.22 Q 82.88 0.24 83.56 0.24 Q 84.1 0.24 84.79 0.17 A 43.325 43.325 0 0 0 85.069 0.141 Q 85.421 0.103 85.604 0.076 A 3.083 3.083 0 0 0 85.7 0.06 L 85.62 0.96 Q 84.96 1.04 84.71 1.22 Q 84.483 1.384 84.421 1.597 A 0.574 0.574 0 0 0 84.41 1.64 A 1.805 1.805 0 0 0 84.391 1.755 Q 84.352 2.033 84.308 2.702 A 47.642 47.642 0 0 0 84.3 2.82 A 74.022 74.022 0 0 0 84.206 4.4 Q 84.167 5.205 84.138 6.097 A 124.06 124.06 0 0 0 84.12 6.7 A 177.144 177.144 0 0 0 84.079 8.508 Q 84.065 9.332 84.061 10.063 A 98.057 98.057 0 0 0 84.06 10.54 Q 84.06 11.094 84.131 11.405 A 1.197 1.197 0 0 0 84.18 11.57 A 0.652 0.652 0 0 0 84.56 11.956 A 0.851 0.851 0 0 0 84.63 11.98 Q 84.96 12.08 85.76 12.08 Q 86.727 12.08 87.285 11.955 A 2.377 2.377 0 0 0 87.55 11.88 A 1.477 1.477 0 0 0 88.373 11.171 A 1.94 1.94 0 0 0 88.41 11.1 A 3.415 3.415 0 0 0 88.569 10.719 Q 88.768 10.16 88.94 9.24 L 89.82 9.14 L 89.88 9.24 A 21.956 21.956 0 0 0 89.848 9.419 Q 89.778 9.805 89.63 10.68 Q 89.44 11.8 89.3 13.04 L 89.2 13.16 A 22.868 22.868 0 0 0 88.887 13.141 Q 88.38 13.113 87.432 13.075 A 308.036 308.036 0 0 0 86.81 13.05 Q 85.09 12.984 83.939 12.98 A 41.398 41.398 0 0 0 83.82 12.98 Q 82.88 12.98 82.11 13.06 Q 81.389 13.135 81.168 13.175 A 1.48 1.48 0 0 0 81.14 13.18 Z M 198.24 13.22 L 198.36 12.3 Q 199.089 12.158 199.441 11.908 A 0.985 0.985 0 0 0 199.6 11.77 A 0.997 0.997 0 0 0 199.789 11.455 Q 199.902 11.164 199.918 10.724 A 4.082 4.082 0 0 0 199.92 10.58 L 199.94 2.18 Q 199.94 1.54 199.79 1.32 A 0.433 0.433 0 0 0 199.603 1.17 Q 199.457 1.105 199.231 1.101 A 1.699 1.699 0 0 0 199.2 1.1 Q 199 1.1 198.8 1.12 Q 198.6 1.14 198.52 1.14 L 198.48 1.06 L 198.62 0.18 A 4.756 4.756 0 0 0 198.745 0.19 Q 198.929 0.201 199.25 0.213 A 49.866 49.866 0 0 0 199.46 0.22 Q 200.08 0.24 200.72 0.24 A 53.969 53.969 0 0 0 202.271 0.217 A 59.706 59.706 0 0 0 202.5 0.21 Q 203.255 0.186 203.619 0.168 A 14.694 14.694 0 0 0 203.76 0.16 A 8.392 8.392 0 0 1 205.675 0.37 A 6.829 6.829 0 0 1 207.18 0.91 Q 208.68 1.66 209.51 3.02 A 5.685 5.685 0 0 1 210.311 5.494 A 7.022 7.022 0 0 1 210.34 6.14 A 7.196 7.196 0 0 1 209.691 9.193 A 7.048 7.048 0 0 1 209.42 9.72 Q 208.5 11.34 206.92 12.28 Q 205.34 13.22 203.42 13.22 A 11.984 11.984 0 0 0 203.257 13.2 Q 202.908 13.158 202.15 13.08 A 24.076 24.076 0 0 0 201.522 13.023 Q 200.96 12.98 200.54 12.98 Q 199.92 12.98 199.19 13.08 A 87.466 87.466 0 0 0 198.895 13.121 Q 198.525 13.173 198.338 13.204 A 5.459 5.459 0 0 0 198.24 13.22 Z M 164.6 13.22 L 164.72 12.3 Q 165.465 12.158 165.827 11.908 A 1.014 1.014 0 0 0 165.99 11.77 Q 166.32 11.42 166.32 10.58 L 166.34 2.18 Q 166.34 1.54 166.19 1.32 A 0.433 0.433 0 0 0 166.003 1.17 Q 165.857 1.105 165.631 1.101 A 1.699 1.699 0 0 0 165.6 1.1 L 164.76 1.14 L 164.72 1.06 L 164.86 0.18 A 8.643 8.643 0 0 1 165.011 0.182 Q 165.175 0.184 165.292 0.194 A 2.25 2.25 0 0 1 165.36 0.2 L 167.24 0.24 A 11.829 11.829 0 0 0 167.918 0.219 Q 168.27 0.199 168.675 0.159 A 28.79 28.79 0 0 0 169.54 0.06 L 169.46 0.96 A 5.562 5.562 0 0 0 169.086 1.018 Q 168.568 1.117 168.35 1.29 Q 168.06 1.52 168.02 2.1 Q 167.9 4.44 167.82 6.99 Q 167.743 9.445 167.74 10.649 A 38.323 38.323 0 0 0 167.74 10.74 A 5.943 5.943 0 0 0 167.749 11.073 Q 167.777 11.584 167.902 11.801 A 0.504 0.504 0 0 0 167.92 11.83 A 0.53 0.53 0 0 0 168.158 12.022 Q 168.254 12.063 168.378 12.083 A 1.556 1.556 0 0 0 168.62 12.1 Q 168.947 12.1 169.627 12.045 A 36.004 36.004 0 0 0 169.68 12.04 L 169.72 12.12 L 169.54 13.04 A 6.361 6.361 0 0 1 169.377 13.038 Q 169.228 13.034 169.124 13.023 A 1.617 1.617 0 0 1 169.1 13.02 Q 168.028 12.99 167.32 12.982 A 39.669 39.669 0 0 0 166.92 12.98 Q 165.94 12.98 164.6 13.22 Z M 260.42 13.22 L 260.54 12.3 Q 261.285 12.158 261.647 11.908 A 1.014 1.014 0 0 0 261.81 11.77 Q 262.14 11.42 262.14 10.58 L 262.16 2.18 Q 262.16 1.54 262.01 1.32 A 0.433 0.433 0 0 0 261.823 1.17 Q 261.677 1.105 261.451 1.101 A 1.699 1.699 0 0 0 261.42 1.1 L 260.58 1.14 L 260.54 1.06 L 260.68 0.18 A 8.643 8.643 0 0 1 260.831 0.182 Q 260.995 0.184 261.112 0.194 A 2.25 2.25 0 0 1 261.18 0.2 L 263.06 0.24 A 11.829 11.829 0 0 0 263.738 0.219 Q 264.09 0.199 264.495 0.159 A 28.79 28.79 0 0 0 265.36 0.06 L 265.28 0.96 A 5.562 5.562 0 0 0 264.906 1.018 Q 264.388 1.117 264.17 1.29 Q 263.88 1.52 263.84 2.1 Q 263.72 4.44 263.64 6.99 Q 263.563 9.445 263.56 10.649 A 38.323 38.323 0 0 0 263.56 10.74 A 5.943 5.943 0 0 0 263.569 11.073 Q 263.597 11.584 263.722 11.801 A 0.504 0.504 0 0 0 263.74 11.83 A 0.53 0.53 0 0 0 263.978 12.022 Q 264.074 12.063 264.198 12.083 A 1.556 1.556 0 0 0 264.44 12.1 Q 264.767 12.1 265.447 12.045 A 36.004 36.004 0 0 0 265.5 12.04 L 265.54 12.12 L 265.36 13.04 A 6.361 6.361 0 0 1 265.197 13.038 Q 265.048 13.034 264.944 13.023 A 1.617 1.617 0 0 1 264.92 13.02 Q 263.848 12.99 263.14 12.982 A 39.669 39.669 0 0 0 262.74 12.98 Q 261.76 12.98 260.42 13.22 Z M 131.088 12.96 A 5.73 5.73 0 0 0 132.84 13.22 Q 134.7 13.22 136.23 12.29 Q 137.76 11.36 138.65 9.74 A 7.101 7.101 0 0 0 139.039 8.909 A 7.473 7.473 0 0 0 139.54 6.16 A 8.191 8.191 0 0 0 139.477 5.127 A 6.485 6.485 0 0 0 138.82 2.96 Q 138.1 1.56 136.82 0.78 A 5.167 5.167 0 0 0 135.582 0.234 A 6.012 6.012 0 0 0 133.88 0 Q 132.06 0 130.55 0.93 Q 129.04 1.86 128.17 3.47 A 7.075 7.075 0 0 0 127.711 4.511 A 7.645 7.645 0 0 0 127.3 7.04 A 8.443 8.443 0 0 0 127.362 8.075 A 6.699 6.699 0 0 0 128 10.25 A 6.253 6.253 0 0 0 128.067 10.381 A 5.229 5.229 0 0 0 129.96 12.44 A 5.056 5.056 0 0 0 131.088 12.96 Z M 250.048 12.96 A 5.73 5.73 0 0 0 251.8 13.22 Q 253.66 13.22 255.19 12.29 Q 256.72 11.36 257.61 9.74 A 7.101 7.101 0 0 0 257.999 8.909 A 7.473 7.473 0 0 0 258.5 6.16 A 8.191 8.191 0 0 0 258.437 5.127 A 6.485 6.485 0 0 0 257.78 2.96 Q 257.06 1.56 255.78 0.78 A 5.167 5.167 0 0 0 254.542 0.234 A 6.012 6.012 0 0 0 252.84 0 Q 251.02 0 249.51 0.93 Q 248 1.86 247.13 3.47 A 7.075 7.075 0 0 0 246.671 4.511 A 7.645 7.645 0 0 0 246.26 7.04 A 8.443 8.443 0 0 0 246.322 8.075 A 6.699 6.699 0 0 0 246.96 10.25 A 6.253 6.253 0 0 0 247.027 10.381 A 5.229 5.229 0 0 0 248.92 12.44 A 5.056 5.056 0 0 0 250.048 12.96 Z M 133.46 12.2 A 4.09 4.09 0 0 0 134.926 11.942 A 3.8 3.8 0 0 0 135.7 11.54 A 4.219 4.219 0 0 0 137.039 10.058 A 5.193 5.193 0 0 0 137.22 9.7 A 5.894 5.894 0 0 0 137.69 8.049 A 7.623 7.623 0 0 0 137.76 7 A 8.484 8.484 0 0 0 137.619 5.421 A 6.515 6.515 0 0 0 137.18 3.99 A 5.42 5.42 0 0 0 136.45 2.775 A 4.496 4.496 0 0 0 135.57 1.94 A 3.945 3.945 0 0 0 133.263 1.201 A 4.815 4.815 0 0 0 133.2 1.2 A 3.833 3.833 0 0 0 131.715 1.484 A 3.656 3.656 0 0 0 131.03 1.86 A 4.175 4.175 0 0 0 129.802 3.209 A 5.218 5.218 0 0 0 129.55 3.7 A 5.958 5.958 0 0 0 129.095 5.308 A 7.727 7.727 0 0 0 129.02 6.4 A 8.8 8.8 0 0 0 129.151 7.956 A 6.699 6.699 0 0 0 129.58 9.41 Q 130.14 10.72 131.15 11.46 Q 132.16 12.2 133.46 12.2 Z M 252.42 12.2 A 4.09 4.09 0 0 0 253.886 11.942 A 3.8 3.8 0 0 0 254.66 11.54 A 4.219 4.219 0 0 0 255.999 10.058 A 5.193 5.193 0 0 0 256.18 9.7 A 5.894 5.894 0 0 0 256.65 8.049 A 7.623 7.623 0 0 0 256.72 7 A 8.484 8.484 0 0 0 256.579 5.421 A 6.515 6.515 0 0 0 256.14 3.99 A 5.42 5.42 0 0 0 255.41 2.775 A 4.496 4.496 0 0 0 254.53 1.94 A 3.945 3.945 0 0 0 252.223 1.201 A 4.815 4.815 0 0 0 252.16 1.2 A 3.833 3.833 0 0 0 250.675 1.484 A 3.656 3.656 0 0 0 249.99 1.86 A 4.175 4.175 0 0 0 248.762 3.209 A 5.218 5.218 0 0 0 248.51 3.7 A 5.958 5.958 0 0 0 248.055 5.308 A 7.727 7.727 0 0 0 247.98 6.4 A 8.8 8.8 0 0 0 248.111 7.956 A 6.699 6.699 0 0 0 248.54 9.41 Q 249.1 10.72 250.11 11.46 Q 251.12 12.2 252.42 12.2 Z M 202.38 1.14 A 3.07 3.07 0 0 0 202.199 1.145 Q 201.937 1.161 201.828 1.226 A 0.255 0.255 0 0 0 201.82 1.23 A 0.295 0.295 0 0 0 201.716 1.349 Q 201.671 1.44 201.66 1.58 A 2190.845 2190.845 0 0 0 201.558 4.235 Q 201.396 8.522 201.367 9.892 A 23.419 23.419 0 0 0 201.36 10.36 A 4.428 4.428 0 0 0 201.377 10.758 Q 201.419 11.227 201.57 11.5 A 1.024 1.024 0 0 0 201.945 11.882 Q 202.083 11.966 202.259 12.024 A 1.959 1.959 0 0 0 202.31 12.04 A 2.87 2.87 0 0 0 202.67 12.121 Q 203.06 12.186 203.617 12.198 A 12.263 12.263 0 0 0 203.88 12.2 A 5.027 5.027 0 0 0 205.399 11.982 A 3.951 3.951 0 0 0 207.28 10.71 A 5.03 5.03 0 0 0 208.238 8.846 Q 208.45 8.106 208.502 7.224 A 10.106 10.106 0 0 0 208.52 6.62 A 7.003 7.003 0 0 0 208.336 4.967 A 4.59 4.59 0 0 0 206.93 2.56 Q 205.34 1.14 202.38 1.14 Z M 144.7 6.4 L 146.76 6.6 Q 146.76 6.66 147.36 6.34 A 2.893 2.893 0 0 0 148.03 5.84 A 3.873 3.873 0 0 0 148.44 5.36 Q 148.894 4.736 148.919 3.773 A 4.374 4.374 0 0 0 148.92 3.66 Q 148.92 1.02 145.26 1.02 Q 145.089 1.02 145.013 1.086 A 0.17 0.17 0 0 0 144.99 1.11 Q 144.921 1.199 144.901 1.472 A 2.443 2.443 0 0 0 144.9 1.48 Q 144.72 4.54 144.7 6.4 Z M 19.72 7.52 L 21.48 7.52 Q 22.196 7.52 23.328 7.421 A 44.856 44.856 0 0 0 23.34 7.42 L 21.76 2.18 L 21.62 2.18 L 19.72 7.52 Z M 59.12 7.52 L 60.88 7.52 Q 61.596 7.52 62.728 7.421 A 44.856 44.856 0 0 0 62.74 7.42 L 61.16 2.18 L 61.02 2.18 L 59.12 7.52 Z M 73.622 7.582 A 1.412 1.412 0 0 0 73.96 7.62 A 1.607 1.607 0 0 0 74.122 7.612 A 1.173 1.173 0 0 0 74.87 7.26 Q 75.22 6.9 75.22 6.38 A 1.482 1.482 0 0 0 75.218 6.306 A 1.145 1.145 0 0 0 74.92 5.57 A 0.969 0.969 0 0 0 74.43 5.281 A 1.417 1.417 0 0 0 74.08 5.24 A 1.577 1.577 0 0 0 73.89 5.251 A 1.132 1.132 0 0 0 73.18 5.6 A 1.221 1.221 0 0 0 72.93 5.987 A 1.315 1.315 0 0 0 72.84 6.48 A 1.509 1.509 0 0 0 72.844 6.587 A 1.159 1.159 0 0 0 73.13 7.29 A 0.934 0.934 0 0 0 73.622 7.582 Z M 73.622 13.182 A 1.412 1.412 0 0 0 73.96 13.22 A 1.607 1.607 0 0 0 74.122 13.212 A 1.173 1.173 0 0 0 74.87 12.86 Q 75.22 12.5 75.22 11.98 A 1.482 1.482 0 0 0 75.218 11.906 A 1.145 1.145 0 0 0 74.92 11.17 A 0.969 0.969 0 0 0 74.43 10.881 A 1.417 1.417 0 0 0 74.08 10.84 A 1.577 1.577 0 0 0 73.89 10.851 A 1.132 1.132 0 0 0 73.18 11.2 A 1.221 1.221 0 0 0 72.93 11.587 A 1.315 1.315 0 0 0 72.84 12.08 A 1.509 1.509 0 0 0 72.844 12.187 A 1.159 1.159 0 0 0 73.13 12.89 A 0.934 0.934 0 0 0 73.622 13.182 Z" vector-effect="non-scaling-stroke"/></g></svg>