<svg width="126" height="35" viewBox="0 0 126 35" fill="none" xmlns="http://www.w3.org/2000/svg">
<rect width="125.307" height="34.5542" fill="#1D1D1B"/>
<path d="M11.6905 14.6776C14.2357 13.7888 16.5385 11.4456 16.5385 8.69842C16.5385 5.26443 13.1853 2.51724 9.58971 2.51724H3.40854L5.06493 3.89084V29.4235L3.40854 30.7971H9.54931C14.6801 30.7971 18.2757 27.0803 18.2757 22.6364C18.2757 18.7984 15.4073 15.6068 11.6905 14.6776ZM9.58971 15.4452C11.5693 15.4856 13.5893 18.5964 13.5893 22.596C13.5893 26.5955 11.5693 29.5851 9.58971 29.5851V15.4452ZM9.58971 3.72924C11.0845 3.72924 12.2965 5.74923 12.2965 8.77922C12.2965 11.8496 11.0845 14.2332 9.58971 14.2332V3.72924ZM24.9047 23.3636C28.7831 22.9192 32.0555 18.4348 32.0555 12.9808C32.0555 7.16322 28.4599 2.51724 24.2987 2.51724H18.0771L19.7739 3.81004V29.4235L18.2791 30.7971H25.7935L24.2987 29.4235V24.7371C27.8943 31.8071 31.8131 30.9183 31.8131 30.9183V24.3735C29.3083 26.0299 26.8035 24.9795 24.9047 23.3636ZM24.2987 3.72924C26.0763 3.72924 27.4903 7.85002 27.4903 12.9808C27.4903 18.0712 26.0763 22.192 24.2987 22.192V3.72924ZM37.7686 10.1528L39.7482 22.8384H35.9102L37.7686 10.1528ZM36.597 2.51724L37.001 3.89084L33.0822 29.4235L31.547 30.7971H36.4354L34.9002 29.4235L35.6274 24.6967H40.031L40.7582 29.4235L39.0614 30.7971H46.9797L45.3234 29.4235L41.1218 2.51724H36.597ZM59.2114 4.61804V17.5864L51.0911 2.51724H45.1927L47.9399 6.88043V28.6963L45.5967 30.7971H52.1415L49.7983 28.6963V9.46602L61.0698 30.9183V4.61804L63.413 2.51724H56.8682L59.2114 4.61804ZM69.289 3.72924C71.4706 4.41604 73.2077 10.1528 73.2077 16.6976C73.2077 23.1616 71.4706 28.8983 69.289 29.5851V3.72924ZM63.1482 2.51724L64.7642 3.89084V29.4235L63.1482 30.7971H69.289C74.7025 30.7971 77.7325 24.4543 77.7325 16.8592C77.7325 9.26401 74.7025 2.51724 69.289 2.51724H63.1482ZM83.4851 29.4235V3.89084L85.1415 2.51724H77.3039L78.9603 3.89084V29.4235L77.3039 30.7971H85.1415L83.4851 29.4235ZM98.9169 4.61804V17.5864L90.7965 2.51724H84.8981L87.6453 6.88043V28.6963L85.3021 30.7971H91.8469L89.5037 28.6963V9.46602L100.775 30.9183V4.61804L103.118 2.51724H96.5737L98.9169 4.61804ZM113.156 3.04244C116.024 3.04244 118.408 7.20362 119.66 11.89H119.781L119.418 2.11325C119.014 2.75964 118.327 3.28484 117.438 3.28484C116.186 3.28484 114.852 2.11325 112.792 2.11325C107.5 2.11325 102.692 8.05202 102.692 17.0612C102.692 25.2623 106.49 31.2011 111.661 31.2011C114.489 31.2011 116.711 29.5447 117.438 27.0399L120.549 31.2011H120.63V22.2728C120.63 19.6064 120.791 18.4752 122.044 17.5864V17.5056H114.246V17.5864C115.943 18.556 116.388 19.6872 116.388 22.3132V24.2927C116.388 27.8883 114.731 29.9083 112.671 29.9083C109.156 29.9083 107.742 24.6159 107.742 17.0208C107.742 8.53682 109.641 3.04244 113.156 3.04244Z" fill="#CDC6BE"/>
</svg>
