<svg width="102" height="35" viewBox="0 0 102 35" fill="none" xmlns="http://www.w3.org/2000/svg">
<rect width="101.936" height="34.7972" fill="#1D1D1B"/>
<path d="M3.00454 8.41562L4.82253 4.37564H7.40812V29.4235L5.91333 30.7971H13.4681L11.9329 29.4235V4.37564H14.5185L16.3365 8.41562V2.51724H3.00454V8.41562ZM16.892 3.89084V29.4235L15.276 30.7971H25.9011V24.8987L24.0831 28.9387H21.4168V17.2632H22.3864L24.0427 20.98V11.6072L22.346 15.4048H21.4168V4.37564H24.0831L25.9011 8.41562V2.51724H15.276L16.892 3.89084ZM31.535 10.1528L33.5146 22.8384H29.6766L31.535 10.1528ZM30.3634 2.51724L30.7674 3.89084L26.8486 29.4235L25.3134 30.7971H30.2018L28.6666 29.4235L29.3938 24.6967H33.7974L34.5246 29.4235L32.8278 30.7971H40.7462L39.0898 29.4235L34.8882 2.51724H30.3634ZM56.5113 2.11325C56.1073 2.75964 55.4205 3.28484 54.5721 3.28484C53.3197 3.28484 52.2693 2.11325 50.3301 2.11325C44.7145 2.11325 40.2301 8.29442 40.2301 16.8188C40.2301 25.5047 44.1489 31.2011 49.6433 31.2011C53.6833 31.2011 56.5517 27.8479 57.2385 22.6364L56.9557 22.5556C55.7437 27.2015 53.6833 28.6559 51.3401 28.6559C47.7849 28.6559 45.3609 24.0503 45.3609 16.1724C45.3609 8.65802 47.0173 3.04244 50.7341 3.04244C53.3601 3.04244 55.5417 7.20362 56.7133 11.89H56.8345L56.5113 2.11325ZM63.2921 29.4235V17.2632H66.4837V29.4235L64.9485 30.7163L63.2921 29.4235ZM66.4837 3.89084V15.4048H63.2921V3.89084L64.9081 2.55764L66.4837 3.89084ZM71.0085 3.89084L72.6245 2.51724H57.1513L58.7673 3.89084V29.4235L57.1513 30.7971H72.7053L71.0085 29.4235V3.89084ZM74.5801 3.89084V29.4235L72.9641 30.7971H83.5892V24.8987L81.7712 28.9387H79.1049V17.2632H80.0745L81.7308 20.98V11.6072L80.0341 15.4048H79.1049V4.37564H81.7712L83.5892 8.41562V2.51724H72.9641L74.5801 3.89084ZM90.4755 23.3636C94.3539 22.9192 97.6263 18.4348 97.6263 12.9808C97.6263 7.16322 94.0307 2.51724 89.8695 2.51724H83.6479L85.3447 3.81004V29.4235L83.8499 30.7971H91.3643L89.8695 29.4235V24.7371C93.4651 31.8071 97.3839 30.9183 97.3839 30.9183V24.3735C94.8791 26.0299 92.3743 24.9795 90.4755 23.3636ZM89.8695 3.72924C91.6471 3.72924 93.0611 7.85002 93.0611 12.9808C93.0611 18.0712 91.6471 22.192 89.8695 22.192V3.72924Z" fill="#CDC6BE"/>
</svg>
