<svg width="154" height="34" viewBox="0 0 154 34" fill="none" xmlns="http://www.w3.org/2000/svg">
<rect width="153.34" height="33.303" fill="#1D1D1B"/>
<path d="M9.2429 28.3358V3.72767L10.8393 2.40381H3.28555L4.88196 3.72767V28.3358L3.28555 29.6597H10.8393L9.2429 28.3358ZM24.1159 4.42853V16.9273L16.2896 2.40381H10.6048L13.2525 6.609V27.6349L10.9941 29.6597H17.3019L15.0436 27.6349V9.10097L25.907 29.7765V4.42853L28.1653 2.40381H21.8576L24.1159 4.42853ZM27.5207 8.0886L29.2729 4.19491H31.7649V28.3358L30.3242 29.6597H37.6054L36.1258 28.3358V4.19491H38.6178L40.3699 8.0886V2.40381H27.5207V8.0886ZM40.9053 3.72767V28.3358L39.3478 29.6597H49.5883V23.9749L47.8361 27.8686H45.2663V16.6158H46.2007L47.7972 20.198V11.1646L46.1618 14.8247H45.2663V4.19491H47.8361L49.5883 8.0886V2.40381H39.3478L40.9053 3.72767ZM56.2252 22.4953C59.9631 22.067 63.117 17.745 63.117 12.4885C63.117 6.88156 59.6516 2.40381 55.6411 2.40381H49.6448L51.2802 3.64979V28.3358L49.8395 29.6597H57.0818L55.6411 28.3358V23.8191C59.1065 30.6331 62.8834 29.7765 62.8834 29.7765V23.4687C60.4693 25.0651 58.0552 24.0527 56.2252 22.4953ZM55.6411 3.57192C57.3543 3.57192 58.7171 7.54349 58.7171 12.4885C58.7171 17.3945 57.3543 21.3661 55.6411 21.3661V3.57192ZM68.6232 9.76289L70.5312 21.9891H66.8321L68.6232 9.76289ZM67.4941 2.40381L67.8834 3.72767L64.1066 28.3358L62.627 29.6597H67.3383L65.8587 28.3358L66.5596 23.7802H70.8037L71.5046 28.3358L69.8692 29.6597H77.5009L75.9045 28.3358L71.855 2.40381H67.4941ZM91.527 2.01444C91.1376 2.63743 90.4757 3.14361 89.658 3.14361C88.451 3.14361 87.4386 2.01444 85.5696 2.01444C80.1574 2.01444 75.8354 7.97179 75.8354 16.1875C75.8354 24.5589 79.6123 30.049 84.9077 30.049C88.8014 30.049 91.5659 26.8173 92.2278 21.7944L91.9553 21.7165C90.7872 26.1943 88.8014 27.596 86.5431 27.596C83.1166 27.596 80.7804 23.1572 80.7804 15.5645C80.7804 8.32223 82.3768 2.90999 85.959 2.90999C88.4899 2.90999 90.5925 6.9205 91.7217 11.4372H91.8385L91.527 2.01444ZM93.312 8.0886L95.0642 4.19491H97.5561V28.3358L96.1155 29.6597H103.397L101.917 28.3358V4.19491H104.409L106.161 8.0886V2.40381H93.312V8.0886ZM112.123 28.3358V3.72767L113.72 2.40381H106.166L107.762 3.72767V28.3358L106.166 29.6597H113.72L112.123 28.3358ZM133.03 16.0317C133.03 7.85498 128.747 2.01444 123.452 2.01444C118.118 2.01444 113.873 7.85498 113.873 16.0317C113.873 24.2085 118.118 30.049 123.452 30.049C128.747 30.049 133.03 24.2085 133.03 16.0317ZM127.969 16.0317C127.969 23.7023 126.8 29.1924 123.452 29.1924C120.064 29.1924 118.935 23.7023 118.935 16.0317C118.935 8.36116 120.064 2.87106 123.452 2.87106C126.8 2.87106 127.969 8.36116 127.969 16.0317ZM146.115 4.42853V16.9273L138.288 2.40381H132.604L135.251 6.609V27.6349L132.993 29.6597H139.301L137.042 27.6349V9.10097L147.906 29.7765V4.42853L150.164 2.40381H143.856L146.115 4.42853Z" fill="#CDC6BE"/>
</svg>
