<svg width="157" height="34" viewBox="0 0 157 34" fill="none" xmlns="http://www.w3.org/2000/svg">
<rect width="157" height="33.303" fill="#1D1D1B"/>
<path d="M9.2429 28.3358V3.72767L10.8393 2.40381H3.28555L4.88196 3.72767V28.3358L3.28555 29.6597H10.8393L9.2429 28.3358ZM17.0674 3.72767L18.7806 2.40381H11.149L12.7065 3.72767V28.3358L11.149 29.6597H21.3894V23.9749L19.6372 27.8686H17.0674V3.72767ZM26.8701 3.72767L28.5833 2.40381H20.9517L22.5091 3.72767V28.3358L20.9517 29.6597H31.1921V23.9749L29.4399 27.8686H26.8701V3.72767ZM39.4762 2.40381L41.6567 4.42853V24.1696C41.6567 25.9217 40.4496 26.8173 39.0479 26.8173C37.6072 26.8173 36.4391 25.6492 36.4391 24.2085V3.72767L37.9187 2.40381H30.5986L32.0782 3.72767V24.3253C32.0782 27.3624 34.6091 29.7765 37.763 29.7765C40.9948 29.7765 43.4478 27.3624 43.4478 24.2864V4.42853L45.6282 2.40381H39.4762ZM51.6985 18.7963C54.3851 20.8599 56.0205 21.9502 56.0205 24.3642C56.0205 26.6226 54.6187 27.9075 52.9055 27.9075C49.9074 27.9075 46.8313 23.9749 44.9624 19.8865V29.7765L46.5977 28.3358C48.4278 29.3871 50.3746 29.7765 52.0878 29.7765C55.67 29.7765 59.0575 27.2066 59.0575 22.3785C59.0575 17.5113 56.4877 15.4866 53.6842 13.2283C50.9976 11.0867 48.0384 9.33459 48.0384 6.99837C48.0384 4.97365 49.3233 3.72767 51.1144 3.72767C53.2559 3.72767 54.6187 4.74003 57.9673 11.1646V2.287L56.3709 3.26042C55.2417 2.83212 53.6842 2.287 52.0489 2.287C47.8048 2.287 44.9624 5.20727 44.9624 9.60714C44.9624 14.1238 49.479 17.1609 51.6985 18.7963ZM58.6019 8.0886L60.354 4.19491H62.846V28.3358L61.4053 29.6597H68.6865L67.2069 28.3358V4.19491H69.6989L71.451 8.0886V2.40381H58.6019V8.0886ZM77.8838 22.4953C81.6218 22.067 84.7757 17.745 84.7757 12.4885C84.7757 6.88156 81.3103 2.40381 77.2998 2.40381H71.3035L72.9389 3.64979V28.3358L71.4982 29.6597H78.7405L77.2998 28.3358V23.8191C80.7652 30.6331 84.5421 29.7765 84.5421 29.7765V23.4687C82.128 25.0651 79.7139 24.0527 77.8838 22.4953ZM77.2998 3.57192C79.013 3.57192 80.3758 7.54349 80.3758 12.4885C80.3758 17.3945 79.013 21.3661 77.2998 21.3661V3.57192ZM90.2819 9.76289L92.1898 21.9891H88.4908L90.2819 9.76289ZM89.1527 2.40381L89.5421 3.72767L85.7652 28.3358L84.2856 29.6597H88.997L87.5174 28.3358L88.2183 23.7802H92.4624L93.1632 28.3358L91.5279 29.6597H99.1595L97.5631 28.3358L93.5137 2.40381H89.1527ZM96.6794 8.0886L98.4316 4.19491H100.924V28.3358L99.4829 29.6597H106.764L105.284 28.3358V4.19491H107.776L109.529 8.0886V2.40381H96.6794V8.0886ZM115.491 28.3358V3.72767L117.087 2.40381H109.533L111.13 3.72767V28.3358L109.533 29.6597H117.087L115.491 28.3358ZM136.398 16.0317C136.398 7.85498 132.115 2.01444 126.819 2.01444C121.485 2.01444 117.241 7.85498 117.241 16.0317C117.241 24.2085 121.485 30.049 126.819 30.049C132.115 30.049 136.398 24.2085 136.398 16.0317ZM131.336 16.0317C131.336 23.7023 130.168 29.1924 126.819 29.1924C123.432 29.1924 122.303 23.7023 122.303 16.0317C122.303 8.36116 123.432 2.87106 126.819 2.87106C130.168 2.87106 131.336 8.36116 131.336 16.0317ZM149.482 4.42853V16.9273L141.656 2.40381H135.971L138.619 6.609V27.6349L136.36 29.6597H142.668L140.41 27.6349V9.10097L151.273 29.7765V4.42853L153.532 2.40381H147.224L149.482 4.42853Z" fill="#CDC6BE"/>
</svg>
