<svg width="16" height="73" fill="none" xmlns="http://www.w3.org/2000/svg"><path d="M1.412 36.36c0 9.773 1.4 17.432 4.2 22.978 2.8 5.49 6.26 9.334 10.377 11.53l-.741 1.4c-2.032-1.098-3.953-2.608-5.765-4.53-1.757-1.921-3.322-4.31-4.695-7.165-1.317-2.91-2.36-6.369-3.13-10.377C.89 46.188.507 41.576.507 36.36c0-5.216.384-9.828 1.153-13.836.769-4.008 1.812-7.44 3.13-10.295C6.16 9.32 7.725 6.904 9.482 4.982c1.812-1.922 3.733-3.432 5.765-4.53l.741 1.4C11.871 4.05 8.412 7.92 5.612 13.465c-2.8 5.49-4.2 13.122-4.2 22.895z" fill="#1D1D1B"/></svg>