<svg width="125" height="33" viewBox="0 0 125 33" fill="none" xmlns="http://www.w3.org/2000/svg">
<rect width="124.67" height="32.5925" fill="#1D1D1B"/>
<path d="M3.22647 20.3045C3.22647 25.4263 7.43091 29.7072 12.5527 29.7072C17.6362 29.7072 22.3376 25.2734 22.3376 20.2281C22.3376 15.909 19.1651 12.0868 15.4576 12.0868L21.038 7.11789V2.837H7.16336V8.57033L8.34824 7.11789H18.974L12.0176 13.2334L12.6291 14.2654C13.47 13.9597 14.846 13.6157 15.8016 13.6157C17.8273 13.6157 19.1269 14.877 19.1269 17.5908C19.1269 21.757 14.6167 27.0699 10.03 27.0699C7.43091 27.0699 6.2078 25.2734 6.43713 22.8654C6.5518 21.5276 7.01047 20.037 7.73669 18.7757H3.37936C3.26469 19.2343 3.22647 19.8077 3.22647 20.3045ZM28.0652 3.98367C30.1292 4.63345 31.7728 10.061 31.7728 16.253C31.7728 22.3685 30.1292 27.7961 28.0652 28.4459V3.98367ZM22.2554 2.837L23.7843 4.13656V28.293L22.2554 29.5925H28.0652C33.187 29.5925 36.0536 23.5916 36.0536 16.4059C36.0536 9.22011 33.187 2.837 28.0652 2.837H22.2554ZM46.3775 3.98367C48.4415 4.63345 50.0851 10.061 50.0851 16.253C50.0851 22.3685 48.4415 27.7961 46.3775 28.4459V3.98367ZM40.5677 2.837L42.0966 4.13656V28.293L40.5677 29.5925H46.3775C51.4993 29.5925 54.366 23.5916 54.366 16.4059C54.366 9.22011 51.4993 2.837 46.3775 2.837H40.5677ZM55.4893 4.13656V28.293L53.9604 29.5925H64.0129V24.0121L62.2929 27.8343H59.7702V16.7881H60.6875L62.2547 20.3045V11.437L60.6493 15.0299H59.7702V4.59522H62.2929L64.0129 8.41744V2.837H53.9604L55.4893 4.13656ZM71.3847 18.9285C74.022 20.9543 75.6273 22.0245 75.6273 24.3943C75.6273 26.6112 74.2513 27.8725 72.5696 27.8725C69.6265 27.8725 66.6069 24.0121 64.7722 19.9988V29.7072L66.3776 28.293C68.174 29.325 70.0851 29.7072 71.7669 29.7072C75.2833 29.7072 78.6087 27.1845 78.6087 22.445C78.6087 17.6672 76.086 15.6797 73.334 13.4628C70.6967 11.3606 67.7918 9.64055 67.7918 7.34722C67.7918 5.35967 69.0531 4.13656 70.8113 4.13656C72.9136 4.13656 74.2513 5.13034 77.5384 11.437V2.72234L75.9713 3.67789C74.8629 3.25745 73.334 2.72234 71.7287 2.72234C67.5625 2.72234 64.7722 5.589 64.7722 9.90811C64.7722 14.3419 69.206 17.3232 71.3847 18.9285ZM84.8021 28.293V4.13656L86.3693 2.837H78.9542L80.5213 4.13656V28.293L78.9542 29.5925H86.3693L84.8021 28.293ZM96.4199 3.33389C99.1337 3.33389 101.389 7.27078 102.574 11.7046H102.688L102.344 2.45478C101.962 3.06634 101.312 3.56323 100.471 3.56323C99.2866 3.56323 98.0252 2.45478 96.0759 2.45478C91.0688 2.45478 86.5204 8.07344 86.5204 16.597C86.5204 24.3561 90.1132 29.9748 95.0057 29.9748C97.6812 29.9748 99.7835 28.4076 100.471 26.0379L103.415 29.9748H103.491V21.5276C103.491 19.005 103.644 17.9348 104.829 17.0939V17.0174H97.4519V17.0939C99.0572 18.0112 99.4777 19.0814 99.4777 21.5659V23.4388C99.4777 26.8405 97.9106 28.7516 95.9612 28.7516C92.6359 28.7516 91.2981 23.7445 91.2981 16.5588C91.2981 8.53211 93.0946 3.33389 96.4199 3.33389ZM117.125 4.82456V17.0939L109.442 2.837H103.862L106.461 6.965V27.605L104.244 29.5925H110.436L108.219 27.605V9.41122L118.883 29.7072V4.82456L121.1 2.837H114.908L117.125 4.82456Z" fill="#CDC6BE"/>
</svg>
