<svg width="76" height="35" viewBox="0 0 76 35" fill="none" xmlns="http://www.w3.org/2000/svg">
<rect width="76" height="34.7972" fill="#1D1D1B"/>
<path d="M6.06773 3.89084V22.394C6.06773 26.3935 4.97693 29.9891 3.44174 30.9183V30.9587C7.48172 30.5547 10.5925 27.0803 10.5925 22.9596V3.89084L12.2085 2.51724H4.45174L6.06773 3.89084ZM21.1631 2.51724L23.4254 4.61804V25.1007C23.4254 26.9187 22.1731 27.8479 20.7187 27.8479C19.2239 27.8479 18.0119 26.6359 18.0119 25.1411V3.89084L19.5471 2.51724H11.9519L13.4871 3.89084V25.2623C13.4871 28.4135 16.1131 30.9183 19.3855 30.9183C22.7387 30.9183 25.2838 28.4135 25.2838 25.2219V4.61804L27.5462 2.51724H21.1631ZM33.2385 3.72924C35.4201 4.41604 37.1573 10.1528 37.1573 16.6976C37.1573 23.1616 35.4201 28.8983 33.2385 29.5851V3.72924ZM27.0977 2.51724L28.7137 3.89084V29.4235L27.0977 30.7971H33.2385C38.6521 30.7971 41.6821 24.4543 41.6821 16.8592C41.6821 9.26401 38.6521 2.51724 33.2385 2.51724H27.0977ZM52.7974 3.04244C55.6658 3.04244 58.0494 7.20362 59.3018 11.89H59.423L59.0594 2.11325C58.6554 2.75964 57.9686 3.28484 57.0798 3.28484C55.8274 3.28484 54.4942 2.11325 52.4338 2.11325C47.1414 2.11325 42.3338 8.05202 42.3338 17.0612C42.3338 25.2623 46.1314 31.2011 51.3026 31.2011C54.1306 31.2011 56.3526 29.5447 57.0798 27.0399L60.1905 31.2011H60.2713V22.2728C60.2713 19.6064 60.4329 18.4752 61.6853 17.5864V17.5056H53.8882V17.5864C55.585 18.556 56.0294 19.6872 56.0294 22.3132V24.2927C56.0294 27.8883 54.373 29.9083 52.3126 29.9083C48.7978 29.9083 47.3838 24.6159 47.3838 17.0208C47.3838 8.53682 49.2826 3.04244 52.7974 3.04244ZM62.8042 3.89084V29.4235L61.1882 30.7971H71.8134V24.8987L69.9954 28.9387H67.329V17.2632H68.2986L69.955 20.98V11.6072L68.2582 15.4048H67.329V4.37564H69.9954L71.8134 8.41562V2.51724H61.1882L62.8042 3.89084Z" fill="#CDC6BE"/>
</svg>
