<svg width="161" height="35" viewBox="0 0 161 35" fill="none" xmlns="http://www.w3.org/2000/svg">
<rect width="161" height="34.5542" fill="#1D1D1B"/>
<path d="M12.4581 2.51724L14.7205 4.61804V25.1007C14.7205 26.9187 13.4681 27.8479 12.0137 27.8479C10.5189 27.8479 9.30691 26.6359 9.30691 25.1411V3.89084L10.8421 2.51724H3.24694L4.78213 3.89084V25.2623C4.78213 28.4135 7.40812 30.9183 10.6805 30.9183C14.0337 30.9183 16.5789 28.4135 16.5789 25.2219V4.61804L18.8413 2.51724H12.4581ZM24.14 29.4235V3.89084L25.7964 2.51724H17.9588L19.6152 3.89084V29.4235L17.9588 30.7971H25.7964L24.14 29.4235ZM32.2584 2.51724L27.2489 30.7971H29.996L35.046 2.51724H32.2584ZM45.8905 2.51724L48.1529 4.61804V25.1007C48.1529 26.9187 46.9005 27.8479 45.4461 27.8479C43.9513 27.8479 42.7393 26.6359 42.7393 25.1411V3.89084L44.2745 2.51724H36.6794L38.2146 3.89084V25.2623C38.2146 28.4135 40.8405 30.9183 44.1129 30.9183C47.4661 30.9183 50.0113 28.4135 50.0113 25.2219V4.61804L52.2737 2.51724H45.8905ZM66.6923 29.4235L61.3192 15.0412L65.5611 4.61804L68.1063 2.51724H61.2788L63.6219 4.61804L60.4304 12.5768L57.1984 3.89084L58.8548 2.51724H50.9364L52.5928 3.89084L57.966 18.3136L53.7644 28.6963L51.2192 30.7971H57.966L55.7036 28.6963L58.8952 20.8588L62.0867 29.4235L60.5112 30.7971H68.3083L66.6923 29.4235ZM78.5446 3.72924C80.7262 4.41604 82.4634 10.1528 82.4634 16.6976C82.4634 23.1616 80.7262 28.8983 78.5446 29.5851V3.72924ZM72.4039 2.51724L74.0198 3.89084V29.4235L72.4039 30.7971H78.5446C83.9582 30.7971 86.9882 24.4543 86.9882 16.8592C86.9882 9.26401 83.9582 2.51724 78.5446 2.51724H72.4039ZM88.1756 3.89084V29.4235L86.5596 30.7971H97.1847V24.8987L95.3667 28.9387H92.7003V17.2632H93.6699L95.3263 20.98V11.6072L93.6295 15.4048H92.7003V4.37564H95.3667L97.1847 8.41562V2.51724H86.5596L88.1756 3.89084ZM104.977 19.5256C107.764 21.6668 109.461 22.798 109.461 25.3027C109.461 27.6459 108.007 28.9791 106.229 28.9791C103.118 28.9791 99.9265 24.8987 97.9874 20.6568V30.9183L99.6841 29.4235C101.583 30.5143 103.603 30.9183 105.381 30.9183C109.097 30.9183 112.612 28.2519 112.612 23.2424C112.612 18.1924 109.946 16.0916 107.037 13.7484C104.249 11.5264 101.179 9.70841 101.179 7.28442C101.179 5.18363 102.512 3.89084 104.371 3.89084C106.593 3.89084 108.007 4.94123 111.481 11.6072V2.39605L109.825 3.40604C108.653 2.96164 107.037 2.39605 105.34 2.39605C100.937 2.39605 97.9874 5.42603 97.9874 9.99121C97.9874 14.6776 102.674 17.8288 104.977 19.5256ZM119.158 29.4235V3.89084L120.815 2.51724H112.977L114.634 3.89084V29.4235L112.977 30.7971H120.815L119.158 29.4235ZM131.438 3.04244C134.306 3.04244 136.69 7.20362 137.942 11.89H138.064L137.7 2.11325C137.296 2.75964 136.609 3.28484 135.72 3.28484C134.468 3.28484 133.135 2.11325 131.074 2.11325C125.782 2.11325 120.975 8.05202 120.975 17.0612C120.975 25.2623 124.772 31.2011 129.943 31.2011C132.771 31.2011 134.993 29.5447 135.72 27.0399L138.831 31.2011H138.912V22.2728C138.912 19.6064 139.074 18.4752 140.326 17.5864V17.5056H132.529V17.5864C134.226 18.556 134.67 19.6872 134.67 22.3132V24.2927C134.67 27.8883 133.014 29.9083 130.953 29.9083C127.439 29.9083 126.025 24.6159 126.025 17.0208C126.025 8.53682 127.923 3.04244 131.438 3.04244ZM153.322 4.61804V17.5864L145.202 2.51724H139.304L142.051 6.88043V28.6963L139.708 30.7971H146.253L143.909 28.6963V9.46602L155.181 30.9183V4.61804L157.524 2.51724H150.979L153.322 4.61804Z" fill="#CDC6BE"/>
</svg>
