<svg width="139" height="35" viewBox="0 0 139 35" fill="none" xmlns="http://www.w3.org/2000/svg">
<rect width="138.597" height="34.5542" fill="#1D1D1B"/>
<path d="M3.44894 2.51724L5.06493 3.89084V29.4235L3.40854 30.7971H11.3269L9.58971 29.4235V17.2632H10.5593L12.2157 20.98V11.6072L10.4785 15.4048H9.58971V4.37564H12.2157L14.0741 8.41562V2.51724H3.44894ZM20.9594 23.3636C24.8378 22.9192 28.1102 18.4348 28.1102 12.9808C28.1102 7.16322 24.5146 2.51724 20.3534 2.51724H14.1319L15.8286 3.81004V29.4235L14.3338 30.7971H21.8482L20.3534 29.4235V24.7371C23.949 31.8071 27.8678 30.9183 27.8678 30.9183V24.3735C25.363 26.0299 22.8582 24.9795 20.9594 23.3636ZM20.3534 3.72924C22.131 3.72924 23.545 7.85002 23.545 12.9808C23.545 18.0712 22.131 22.192 20.3534 22.192V3.72924ZM48.7712 16.6572C48.7712 8.17322 44.3272 2.11325 38.8329 2.11325C33.2981 2.11325 28.8945 8.17322 28.8945 16.6572C28.8945 25.1411 33.2981 31.2011 38.8329 31.2011C44.3272 31.2011 48.7712 25.1411 48.7712 16.6572ZM43.5192 16.6572C43.5192 24.6159 42.3073 30.3123 38.8329 30.3123C35.3181 30.3123 34.1465 24.6159 34.1465 16.6572C34.1465 8.69842 35.3181 3.00204 38.8329 3.00204C42.3073 3.00204 43.5192 8.69842 43.5192 16.6572ZM62.3471 4.61804V17.5864L54.2268 2.51724H48.3284L51.0756 6.88043V28.6963L48.7324 30.7971H55.2772L52.934 28.6963V9.46602L64.2055 30.9183V4.61804L66.5487 2.51724H60.004L62.3471 4.61804ZM65.8799 8.41562L67.6979 4.37564H70.2835V29.4235L68.7887 30.7971H76.3435L74.8083 29.4235V4.37564H77.3939L79.2119 8.41562V2.51724H65.8799V8.41562ZM91.0979 15.3644H80.19V17.2228H91.0979V15.3644ZM94.0809 3.89084V29.4235L92.4649 30.7971H103.09V24.8987L101.272 28.9387H98.6057V17.2632H99.5753L101.232 20.98V11.6072L99.5349 15.4048H98.6057V4.37564H101.272L103.09 8.41562V2.51724H92.4649L94.0809 3.89084ZM116.366 4.61804V17.5864L108.246 2.51724H102.347L105.095 6.88043V28.6963L102.751 30.7971H109.296L106.953 28.6963V9.46602L118.225 30.9183V4.61804L120.568 2.51724H114.023L116.366 4.61804ZM126.444 3.72924C128.625 4.41604 130.362 10.1528 130.362 16.6976C130.362 23.1616 128.625 28.8983 126.444 29.5851V3.72924ZM120.303 2.51724L121.919 3.89084V29.4235L120.303 30.7971H126.444C131.857 30.7971 134.887 24.4543 134.887 16.8592C134.887 9.26401 131.857 2.51724 126.444 2.51724H120.303Z" fill="#CDC6BE"/>
</svg>
